<?xml version="1.0" encoding="UTF-8" standalone="no"?>
<!-- Created with Inkscape (http://www.inkscape.org/) -->

<svg
   xmlns:dc="http://purl.org/dc/elements/1.1/"
   xmlns:cc="http://creativecommons.org/ns#"
   xmlns:rdf="http://www.w3.org/1999/02/22-rdf-syntax-ns#"
   xmlns:svg="http://www.w3.org/2000/svg"
   xmlns="http://www.w3.org/2000/svg"
   xmlns:sodipodi="http://sodipodi.sourceforge.net/DTD/sodipodi-0.dtd"
   xmlns:inkscape="http://www.inkscape.org/namespaces/inkscape"
   width="744.09448"
   height="1052.3622"
   viewBox="0 0 210 297"
   version="1.1"
   id="svg8"
   inkscape:version="0.91 r13725"
   sodipodi:docname="paisley.svg">
  <sodipodi:namedview
     id="base"
     pagecolor="#ffffff"
     bordercolor="#666666"
     borderopacity="1.0"
     inkscape:pageopacity="0.0"
     inkscape:pageshadow="2"
     inkscape:zoom="0.7"
     inkscape:cx="945.30954"
     inkscape:cy="482.64625"
     inkscape:document-units="mm"
     inkscape:current-layer="layer1"
     showgrid="false"
     inkscape:window-width="1855"
     inkscape:window-height="1056"
     inkscape:window-x="65"
     inkscape:window-y="24"
     inkscape:window-maximized="1"
     units="px" />
  <defs
     id="defs2">
    <inkscape:path-effect
       effect="spiro"
       id="path-effect6940"
       is_visible="true" />
    <inkscape:path-effect
       effect="spiro"
       id="path-effect4499"
       is_visible="true" />
    <inkscape:path-effect
       is_visible="true"
       id="path-effect35"
       effect="spiro" />
    <inkscape:path-effect
       is_visible="true"
       id="path-effect31"
       effect="spiro" />
  </defs>
  <metadata
     id="metadata5">
    <rdf:RDF>
      <cc:Work
         rdf:about="">
        <dc:format>image/svg+xml</dc:format>
        <dc:type
           rdf:resource="http://purl.org/dc/dcmitype/StillImage" />
        <dc:title></dc:title>
      </cc:Work>
    </rdf:RDF>
  </metadata>
  <g
     id="layer1"
     inkscape:groupmode="layer"
     inkscape:label="Layer 1">
    <path
       sodipodi:nodetypes="csscssc"
       inkscape:original-d="m -48.380961,2.1785713 c -3.402052,-3.02354497 -1.007674,9.8271157 -1.511906,14.7410717 -0.504232,4.913954 -7.055292,11.339021 -10.583333,17.008928 -3.528042,5.669907 18.64427,47.337866 11.339287,35.529762 4.157472,12.347486 2.646095,-21.166933 1.133928,-26.836311 -1.512171,-5.669378 6.551851,-20.914946 9.82738,-31.372022 3.275529,-10.45707686 -23.434259,-14.3633599 -10.205356,-9.0714287 z"
       inkscape:path-effect="#path-effect31"
       inkscape:connector-curvature="0"
       id="path29"
       d="m -48.380961,2.1785713 c 1.013729,4.9137479 0.478174,10.1354067 -1.511906,14.7410717 -2.653262,6.140475 -7.694968,10.975472 -10.583333,17.008928 -2.957349,6.177556 -3.46104,13.489633 -1.378684,20.014347 2.082356,6.524715 6.728762,12.193144 12.717971,15.515415 -2.852631,-8.692927 -2.441839,-18.415006 1.133928,-26.836311 2.208032,-5.200147 5.541261,-9.849244 7.93192,-14.968002 1.19533,-2.559379 2.156036,-5.249205 2.573587,-8.042927 0.417551,-2.793722 0.275564,-5.702201 -0.678127,-8.361093 -1.602534,-4.4678673 -5.580418,-8.0037649 -10.205356,-9.0714287 z"
       style="fill:#000000;fill-rule:evenodd;stroke:#000000;stroke-width:0.26458332px;stroke-linecap:butt;stroke-linejoin:miter;stroke-opacity:1" />
    <circle
       r="8.3154764"
       cy="-15.208332"
       cx="-44.601196"
       id="path3688"
       style="fill:#000000;stroke:#000000;stroke-width:0.26458332" />
    <path
       style="fill:none;fill-rule:evenodd;stroke:#000000;stroke-width:0.26458332px;stroke-linecap:butt;stroke-linejoin:miter;stroke-opacity:1"
       d="m -22.980945,2.1785713 c 1.013729,4.9137479 0.478174,10.1354067 -1.511906,14.7410717 -2.653262,6.140475 -7.694968,10.975472 -10.583333,17.008928 -2.957349,6.177556 -3.46104,13.489633 -1.378684,20.014347 2.082356,6.524715 6.728762,12.193144 12.717971,15.515415 -2.852631,-8.692927 -2.441839,-18.415006 1.133928,-26.836311 2.208032,-5.200147 5.541261,-9.849244 7.93192,-14.968002 1.19533,-2.559379 2.156036,-5.249205 2.573587,-8.042927 0.417551,-2.793722 0.275564,-5.702201 -0.678127,-8.361093 -1.602534,-4.4678673 -5.580418,-8.0037649 -10.205356,-9.0714287 z"
       id="path4497"
       inkscape:connector-curvature="0"
       inkscape:path-effect="#path-effect4499"
       inkscape:original-d="m -22.980945,2.1785713 c -3.402052,-3.02354497 -1.007674,9.8271157 -1.511906,14.7410717 -0.504232,4.913954 -7.055292,11.339021 -10.583333,17.008928 -3.528042,5.669907 18.64427,47.337866 11.339287,35.529762 4.157472,12.347486 2.646095,-21.166933 1.133928,-26.836311 C -24.11514,36.952644 -16.051118,21.707076 -12.775589,11.25 -9.5000603,0.79292314 -36.209848,-3.1133599 -22.980945,2.1785713 Z"
       sodipodi:nodetypes="csscssc" />
    <path
       inkscape:transform-center-y="-4.7332008"
       inkscape:transform-center-x="-1.4761905e-06"
       d="m -7.7941966,108.0289 -16.3962824,0 -16.396283,0 8.198141,-14.199599 8.198142,-14.199597 8.198141,14.199597 z"
       inkscape:randomized="0"
       inkscape:rounded="0"
       inkscape:flatsided="false"
       sodipodi:arg2="1.5707963"
       sodipodi:arg1="0.52359878"
       sodipodi:r2="9.4663982"
       sodipodi:r1="18.932796"
       sodipodi:cy="98.5625"
       sodipodi:cx="-24.190479"
       sodipodi:sides="3"
       id="path4503"
       style="fill:none;stroke:#000000;stroke-width:0.52916664;stroke-miterlimit:4;stroke-dasharray:none"
       sodipodi:type="star" />
    <path
       sodipodi:type="star"
       style="fill:#000000;stroke:#000000;stroke-width:0.52916664;stroke-miterlimit:4;stroke-dasharray:none"
       id="path4507"
       sodipodi:sides="3"
       sodipodi:cx="-65.011909"
       sodipodi:cy="98.5625"
       sodipodi:r1="18.932796"
       sodipodi:r2="9.4663982"
       sodipodi:arg1="0.52359878"
       sodipodi:arg2="1.5707963"
       inkscape:flatsided="false"
       inkscape:rounded="0"
       inkscape:randomized="0"
       d="m -48.615627,108.0289 -16.396282,0 -16.396283,0 8.198141,-14.199599 8.198142,-14.199597 8.198141,14.199597 z"
       inkscape:transform-center-x="-1.4761905e-06"
       inkscape:transform-center-y="-4.7332008" />
    <g
       id="g6782">
      <path
         sodipodi:type="star"
         style="fill:#000000;stroke:#000000;stroke-width:0.52916664;stroke-miterlimit:4;stroke-dasharray:none"
         id="path4509"
         sodipodi:sides="3"
         sodipodi:cx="-66.145836"
         sodipodi:cy="138.62798"
         sodipodi:r1="18.932796"
         sodipodi:r2="9.4663982"
         sodipodi:arg1="0.52359878"
         sodipodi:arg2="1.5707963"
         inkscape:flatsided="false"
         inkscape:rounded="0"
         inkscape:randomized="0"
         d="m -49.749553,148.09437 -16.396283,0 -16.396283,0 8.198142,-14.19959 8.198141,-14.1996 8.198141,14.1996 z"
         inkscape:transform-center-x="-1.4761905e-06"
         inkscape:transform-center-y="-4.7332008" />
      <circle
         r="8.3154764"
         cy="139.00597"
         cx="-66.145836"
         id="circle4511"
         style="fill:#ffffff;stroke:#000000;stroke-width:0.26458332" />
    </g>
    <g
       id="g6890">
      <path
         style="fill:#000000;stroke:#000000;stroke-width:0.52916664;stroke-miterlimit:4;stroke-dasharray:none"
         inkscape:transform-center-x="-1.4761905e-06"
         inkscape:transform-center-y="-4.7332008"
         d="m -8.6446414,148.09437 -16.3962826,0 -16.396283,0 c 0,0 9.229297,-28.4415 16.396283,-28.39919 6.62797,-0.094 16.3962826,28.39919 16.3962826,28.39919 z"
         id="path4513"
         inkscape:connector-curvature="0"
         sodipodi:nodetypes="ccccc" />
      <circle
         style="fill:#ffffff;stroke:#000000;stroke-width:0.26458332"
         id="circle4515"
         cx="-25.040926"
         cy="139.00597"
         r="8.3154764" />
    </g>
    <path
       sodipodi:nodetypes="cscsc"
       inkscape:connector-curvature="0"
       id="path4518"
       d="m -50.648809,175.76414 c 0,0 -7.530536,7.27605 -16.819941,7.27605 -9.289405,0 -16.819941,-7.27605 -16.819941,-7.27605 0,0 7.530545,-7.27604 16.819941,-7.27604 9.289396,0 16.819941,7.27604 16.819941,7.27604 z"
       style="fill:#000000;stroke:#000000;stroke-width:0.52916664;stroke-miterlimit:4;stroke-dasharray:none" />
    <path
       style="fill:#ffffff;stroke:#000000;stroke-width:0.52916664;stroke-miterlimit:4;stroke-dasharray:none"
       d="m -9.8273804,175.76414 c 0,0 -7.5305356,7.27605 -16.8199406,7.27605 -9.289405,0 -16.819941,-7.27605 -16.819941,-7.27605 0,0 7.530545,-7.27604 16.819941,-7.27604 9.289396,0 16.8199406,7.27604 16.8199406,7.27604 z"
       id="path4521"
       inkscape:connector-curvature="0"
       sodipodi:nodetypes="cscsc" />
    <path
       style="fill:#000000;stroke:#000000;stroke-width:0.52916664;stroke-miterlimit:4;stroke-dasharray:none"
       d="m -46.302083,196.21278 c 0,0 -11.877262,7.46504 -21.166667,7.46504 0,0 -11.702668,-0.76273 -12.284227,-7.65403 -0.460003,-5.45089 12.284227,-6.89806 12.284227,-6.89806 8.344455,0.37797 21.166667,7.08705 21.166667,7.08705 z"
       id="path4523"
       inkscape:connector-curvature="0"
       sodipodi:nodetypes="csssc" />
    <path
       sodipodi:nodetypes="csssc"
       inkscape:connector-curvature="0"
       id="path4525"
       d="m -8.2020602,196.21278 c 0,0 -11.8772608,7.46504 -21.1666658,7.46504 0,0 -11.702668,-0.76273 -12.284227,-7.65403 -0.460003,-5.45089 12.284227,-6.89806 12.284227,-6.89806 8.344455,0.37797 21.1666658,7.08705 21.1666658,7.08705 z"
       style="fill:#ffffff;stroke:#000000;stroke-width:0.52916664;stroke-miterlimit:4;stroke-dasharray:none" />
    <path
       sodipodi:nodetypes="ccccc"
       inkscape:connector-curvature="0"
       id="path4530"
       d="m -150.75244,14.585293 11.76607,-20.3794299 11.76608,-20.3794421 11.76607,20.3794421 11.76607,20.3794399"
       inkscape:transform-center-y="-6.7931477"
       inkscape:transform-center-x="-2.1415234e-06"
       style="fill:#ffffff;stroke:#000000;stroke-width:0.52916664;stroke-miterlimit:4;stroke-dasharray:none" />
    <circle
       style="fill:none;stroke:#000000;stroke-width:0.23865417;stroke-miterlimit:4;stroke-dasharray:none"
       id="circle3690"
       cx="-20.032745"
       cy="-15.586308"
       r="8.3154764" />
    <g
       id="g6730"
       transform="translate(42.763124,-126.15122)">
      <circle
         transform="matrix(0.50000018,-0.8660253,0.8660253,0.50000018,-167.87043,190.39735)"
         style="fill:none;stroke:#000000;stroke-width:0.23865417;stroke-miterlimit:4;stroke-dasharray:none"
         id="circle6717"
         cx="-20.032745"
         cy="-15.586308"
         r="8.3154764" />
      <circle
         transform="matrix(0.50000018,-0.8660253,0.8660253,0.50000018,-160.02638,176.81105)"
         style="fill:none;stroke:#000000;stroke-width:0.23865417;stroke-miterlimit:4;stroke-dasharray:none"
         id="circle9233"
         cx="-20.032745"
         cy="-15.586308"
         r="8.3154764" />
      <circle
         transform="matrix(0.50000018,-0.8660253,0.8660253,0.50000018,-152.18232,163.22476)"
         style="fill:none;stroke:#000000;stroke-width:0.23865417;stroke-miterlimit:4;stroke-dasharray:none"
         id="circle1016"
         cx="-20.032745"
         cy="-15.586308"
         r="8.3154764" />
      <circle
         transform="matrix(0.5,0.866026,-0.866026,0.5,-171.8541,184.33622)"
         style="fill:none;stroke:#000000;stroke-width:0.23865417;stroke-miterlimit:4;stroke-dasharray:none"
         id="circle9788"
         cx="-20.032745"
         cy="-15.586308"
         r="8.3154764" />
      <circle
         transform="matrix(0.5,0.866026,-0.866026,0.5,-164.01006,197.92252)"
         style="fill:none;stroke:#000000;stroke-width:0.23865417;stroke-miterlimit:4;stroke-dasharray:none"
         id="circle1478"
         cx="-20.032745"
         cy="-15.586308"
         r="8.3154764" />
      <circle
         transform="matrix(0.50000018,0.8660253,-0.8660253,0.50000018,-156.16597,211.5089)"
         style="fill:none;stroke:#000000;stroke-width:0.23865417;stroke-miterlimit:4;stroke-dasharray:none"
         id="circle1252"
         cx="-20.032745"
         cy="-15.586308"
         r="8.3154764" />
      <circle
         transform="matrix(0.50000018,0.8660253,-0.8660253,0.50000018,-148.32192,225.09519)"
         style="fill:none;stroke:#000000;stroke-width:0.23865417;stroke-miterlimit:4;stroke-dasharray:none"
         id="circle7539"
         cx="-20.032745"
         cy="-15.586308"
         r="8.3154764" />
    </g>
    <g
       id="g6886"
       transform="translate(42.763124,-126.15122)">
      <g
         transform="translate(-0.56084202,69.639038)"
         id="g6778">
        <circle
           transform="matrix(0.50000018,-0.8660253,0.8660253,0.50000018,-167.87043,190.39735)"
           style="fill:none;stroke:#000000;stroke-width:0.23865417;stroke-miterlimit:4;stroke-dasharray:none"
           id="circle6764"
           cx="-20.032745"
           cy="-15.586308"
           r="8.3154764" />
        <circle
           transform="matrix(0.50000018,-0.8660253,0.8660253,0.50000018,-160.02638,176.81105)"
           style="fill:none;stroke:#000000;stroke-width:0.23865417;stroke-miterlimit:4;stroke-dasharray:none"
           id="circle6766"
           cx="-20.032745"
           cy="-15.586308"
           r="8.3154764" />
        <circle
           transform="matrix(0.50000018,-0.8660253,0.8660253,0.50000018,-152.18232,163.22476)"
           style="fill:none;stroke:#000000;stroke-width:0.23865417;stroke-miterlimit:4;stroke-dasharray:none"
           id="circle6768"
           cx="-20.032745"
           cy="-15.586308"
           r="8.3154764" />
        <circle
           transform="matrix(0.5,0.866026,-0.866026,0.5,-171.8541,184.33622)"
           style="fill:none;stroke:#000000;stroke-width:0.23865417;stroke-miterlimit:4;stroke-dasharray:none"
           id="circle6770"
           cx="-20.032745"
           cy="-15.586308"
           r="8.3154764" />
        <circle
           transform="matrix(0.5,0.866026,-0.866026,0.5,-164.01006,197.92252)"
           style="fill:none;stroke:#000000;stroke-width:0.23865417;stroke-miterlimit:4;stroke-dasharray:none"
           id="circle6772"
           cx="-20.032745"
           cy="-15.586308"
           r="8.3154764" />
        <circle
           transform="matrix(0.50000018,0.8660253,-0.8660253,0.50000018,-156.16597,211.5089)"
           style="fill:none;stroke:#000000;stroke-width:0.23865417;stroke-miterlimit:4;stroke-dasharray:none"
           id="circle6774"
           cx="-20.032745"
           cy="-15.586308"
           r="8.3154764" />
        <circle
           transform="matrix(0.50000018,0.8660253,-0.8660253,0.50000018,-148.32192,225.09519)"
           style="fill:none;stroke:#000000;stroke-width:0.23865417;stroke-miterlimit:4;stroke-dasharray:none"
           id="circle6776"
           cx="-20.032745"
           cy="-15.586308"
           r="8.3154764" />
      </g>
      <g
         transform="translate(-103.16604,119.20221)"
         id="g6873">
        <path
           sodipodi:type="star"
           style="fill:#000000;stroke:#000000;stroke-width:0.52916664;stroke-miterlimit:4;stroke-dasharray:none"
           id="path6869"
           sodipodi:sides="3"
           sodipodi:cx="-66.145836"
           sodipodi:cy="138.62798"
           sodipodi:r1="18.932796"
           sodipodi:r2="9.4663982"
           sodipodi:arg1="0.52359878"
           sodipodi:arg2="1.5707963"
           inkscape:flatsided="false"
           inkscape:rounded="0"
           inkscape:randomized="0"
           d="m -49.749553,148.09437 -16.396283,0 -16.396283,0 8.198142,-14.19959 8.198141,-14.1996 8.198141,14.1996 z"
           inkscape:transform-center-x="-1.4761905e-06"
           inkscape:transform-center-y="-4.7332008" />
        <circle
           r="8.3154764"
           cy="139.00597"
           cx="-66.145836"
           id="circle6871"
           style="fill:#ffffff;stroke:#000000;stroke-width:0.26458332" />
      </g>
    </g>
    <path
       sodipodi:type="inkscape:offset"
       inkscape:radius="0"
       inkscape:original="M 124.08789 37.058594 C 117.94781 37.051094 111.80489 37.87493 105.81055 39.222656 C 86.156923 43.641432 67.582119 54.032115 54.955078 69.738281 C 43.839191 83.564797 37.701502 100.95369 35.626953 118.5625 C 33.552501 136.17049 35.367793 154.04504 38.892578 171.41016 C 43.958018 196.36543 53.237924 221.65375 72.074219 238.83203 C 80.410682 246.4347 90.492132 252.22765 101.43945 254.97852 C 112.38738 257.72955 124.19475 257.35546 134.74023 253.31445 C 145.28657 249.27313 154.46358 241.48388 159.61914 231.42969 C 164.77527 221.37442 165.70733 209.11025 161.55469 198.5957 C 157.69378 188.81986 149.87983 181.11645 141.38477 174.9668 C 132.89064 168.81781 123.55447 163.93723 115.00195 157.91211 C 107.05135 152.31103 99.750868 145.67572 94.103516 137.76758 C 88.456504 129.85992 84.504076 120.62605 83.519531 110.9668 C 82.401641 99.999306 85.221042 88.680051 91.291016 79.476562 C 97.361052 70.272982 106.63195 63.236297 117.10547 59.791016 C 124.88784 57.230992 133.52449 56.661734 141.20508 59.470703 C 145.0452 60.875125 148.59813 63.113817 151.39453 66.091797 C 154.19068 69.069491 156.21567 72.79698 157.02539 76.796875 C 158.15702 82.386925 156.8139 88.436864 153.42383 93.023438 C 150.03375 97.610009 144.64285 100.66828 138.9668 101.22656 L 138.96094 101.49023 C 144.3106 102.29154 149.8948 101.42593 154.75195 99.044922 C 159.60912 96.66396 163.71402 92.780021 166.35742 88.060547 C 170.37611 80.885661 170.86604 71.980736 168.26172 64.1875 C 165.65791 56.395769 160.12397 49.740476 153.28906 45.195312 C 146.45495 40.650688 138.38207 38.149843 130.2207 37.355469 C 128.18049 37.156887 126.13458 37.061107 124.08789 37.058594 z M 124.08789 37.324219 C 126.12666 37.326719 128.16399 37.421429 130.19531 37.619141 C 138.32012 38.409957 146.35121 40.899811 153.14258 45.416016 C 159.93313 49.931682 165.42928 56.543707 168.01172 64.271484 C 170.59366 71.997755 170.10449 80.828271 166.12695 87.929688 C 163.51037 92.601286 159.44461 96.451785 154.63672 98.808594 C 150.10761 101.02875 144.93898 101.86239 139.92773 101.29492 C 145.32695 100.49905 150.39032 97.571865 153.63672 93.179688 C 157.07301 88.530586 158.43026 82.4104 157.2832 76.744141 C 156.46281 72.691523 154.41579 68.923617 151.58789 65.912109 C 148.76027 62.900889 145.17276 60.64016 141.29688 59.222656 C 133.54541 56.387769 124.84994 56.96452 117.02344 59.539062 C 106.49236 63.003279 97.174375 70.076859 91.070312 79.332031 C 84.966189 88.587298 82.131557 99.963748 83.255859 110.99414 C 84.245921 120.70751 88.218982 129.98246 93.888672 137.92188 C 99.558023 145.86082 106.88093 152.51509 114.84961 158.12891 C 123.42121 164.16747 132.75512 169.04767 141.22852 175.18164 C 149.70097 181.31493 157.47506 188.98682 161.30859 198.69336 C 165.43045 209.12993 164.50692 221.31958 159.38477 231.30859 C 154.26207 241.2987 145.13459 249.04934 134.64648 253.06836 C 124.15755 257.0877 112.40272 257.46134 101.50391 254.72266 C 90.604494 251.98383 80.55938 246.21291 72.251953 238.63672 C 53.479238 221.51642 44.210227 196.28509 39.150391 171.35742 C 35.629125 154.00964 33.818752 136.16326 35.888672 118.59375 C 37.958493 101.02506 44.082353 83.683441 55.160156 69.904297 C 67.7435 54.252483 86.265363 43.887599 105.86719 39.480469 C 111.84629 38.13617 117.97158 37.316774 124.08789 37.324219 z "
       style="color:#000000;font-style:normal;font-variant:normal;font-weight:normal;font-stretch:normal;font-size:medium;line-height:normal;font-family:sans-serif;text-indent:0;text-align:start;text-decoration:none;text-decoration-line:none;text-decoration-style:solid;text-decoration-color:#000000;letter-spacing:normal;word-spacing:normal;text-transform:none;direction:ltr;writing-mode:lr-tb;baseline-shift:baseline;text-anchor:start;white-space:normal;clip-rule:nonzero;display:inline;overflow:visible;visibility:visible;opacity:1;isolation:auto;mix-blend-mode:normal;color-interpolation:sRGB;color-interpolation-filters:linearRGB;solid-color:#000000;solid-opacity:1;fill:#000000;fill-opacity:1;fill-rule:evenodd;stroke:none;stroke-width:0.26458332px;stroke-linecap:butt;stroke-linejoin:miter;stroke-miterlimit:4;stroke-dasharray:none;stroke-dashoffset:0;stroke-opacity:1;color-rendering:auto;image-rendering:auto;shape-rendering:auto;text-rendering:auto;enable-background:accumulate"
       id="path3443"
       d="m 124.08789,37.058594 c -6.14008,-0.0075 -12.283,0.816336 -18.27734,2.164062 C 86.156923,43.641432 67.582119,54.032115 54.955078,69.738281 43.839191,83.564797 37.701502,100.95369 35.626953,118.5625 c -2.074452,17.60799 -0.25916,35.48254 3.265625,52.84766 5.06544,24.95527 14.345346,50.24359 33.181641,67.42187 8.336463,7.60267 18.417913,13.39562 29.365231,16.14649 10.94793,2.75103 22.7553,2.37694 33.30078,-1.66407 10.54634,-4.04132 19.72335,-11.83057 24.87891,-21.88476 5.15613,-10.05527 6.08819,-22.31944 1.93555,-32.83399 -3.86091,-9.77584 -11.67486,-17.47925 -20.16992,-23.6289 -8.49413,-6.14899 -17.8303,-11.02957 -26.38282,-17.05469 -7.9506,-5.60108 -15.251082,-12.23639 -20.898434,-20.14453 -5.647012,-7.90766 -9.59944,-17.14153 -10.583985,-26.80078 -1.11789,-10.967494 1.701511,-22.286749 7.771485,-31.490238 6.070036,-9.20358 15.340934,-16.240265 25.814454,-19.685546 7.78237,-2.560024 16.41902,-3.129282 24.09961,-0.320313 3.84012,1.404422 7.39305,3.643114 10.18945,6.621094 2.79615,2.977694 4.82114,6.705183 5.63086,10.705078 1.13163,5.59005 -0.21149,11.639989 -3.60156,16.226563 -3.39008,4.586571 -8.78098,7.644842 -14.45703,8.203122 l -0.006,0.26367 c 5.34966,0.80131 10.93386,-0.0643 15.79101,-2.445308 4.85717,-2.380962 8.96207,-6.264901 11.60547,-10.984375 4.01869,-7.174886 4.50862,-16.079811 1.9043,-23.873047 -2.60381,-7.791731 -8.13775,-14.447024 -14.97266,-18.992188 -6.83411,-4.544624 -14.90699,-7.045469 -23.06836,-7.839843 -2.04021,-0.198582 -4.08612,-0.294362 -6.13281,-0.296875 z m 0,0.265625 c 2.03877,0.0025 4.0761,0.09721 6.10742,0.294922 8.12481,0.790816 16.1559,3.28067 22.94727,7.796875 6.79055,4.515666 12.2867,11.127691 14.86914,18.855468 2.58194,7.726271 2.09277,16.556787 -1.88477,23.658204 -2.61658,4.671598 -6.68234,8.522097 -11.49023,10.878906 -4.52911,2.220156 -9.69774,3.053796 -14.70899,2.486326 5.39922,-0.79587 10.46259,-3.723055 13.70899,-8.115232 3.43629,-4.649102 4.79354,-10.769288 3.64648,-16.435547 -0.82039,-4.052618 -2.86741,-7.820524 -5.69531,-10.832032 -2.82762,-3.01122 -6.41513,-5.271949 -10.29101,-6.689453 -7.75147,-2.834887 -16.44694,-2.258136 -24.27344,0.316406 -10.53108,3.464217 -19.849065,10.537797 -25.953128,19.792969 -6.104123,9.255267 -8.938755,20.631717 -7.814453,31.662109 0.990062,9.71337 4.963123,18.98832 10.632813,26.92774 5.669351,7.93894 12.992258,14.59321 20.960938,20.20703 8.5716,6.03856 17.90551,10.91876 26.37891,17.05273 8.47245,6.13329 16.24654,13.80518 20.08007,23.51172 4.12186,10.43657 3.19833,22.62622 -1.92382,32.61523 -5.1227,9.99011 -14.25018,17.74075 -24.73829,21.75977 -10.48893,4.01934 -22.24376,4.39298 -33.14257,1.6543 C 90.604494,251.98383 80.55938,246.21291 72.251953,238.63672 53.479238,221.51642 44.210227,196.28509 39.150391,171.35742 35.629125,154.00964 33.818752,136.16326 35.888672,118.59375 37.958493,101.02506 44.082353,83.683441 55.160156,69.904297 67.7435,54.252483 86.265363,43.887599 105.86719,39.480469 c 5.9791,-1.344299 12.10439,-2.163695 18.2207,-2.15625 z" />
    <path
       d="m 124.08789,37.058594 c -6.14008,-0.0075 -12.283,0.816336 -18.27734,2.164062 C 86.156923,43.641432 67.582119,54.032115 54.955078,69.738281 43.839191,83.564797 37.701502,100.95369 35.626953,118.5625 c -2.074452,17.60799 -0.25916,35.48254 3.265625,52.84766 5.06544,24.95527 14.345346,50.24359 33.181641,67.42187 8.336463,7.60267 18.417913,13.39562 29.365231,16.14649 10.94793,2.75103 22.7553,2.37694 33.30078,-1.66407 10.54634,-4.04132 19.72335,-11.83057 24.87891,-21.88476 5.15613,-10.05527 6.08819,-22.31944 1.93555,-32.83399 -3.86091,-9.77584 -11.67486,-17.47925 -20.16992,-23.6289 -8.49413,-6.14899 -17.8303,-11.02957 -26.38282,-17.05469 -7.9506,-5.60108 -15.251082,-12.23639 -20.898434,-20.14453 -5.647012,-7.90766 -9.59944,-17.14153 -10.583985,-26.80078 -1.11789,-10.967494 1.701511,-22.286749 7.771485,-31.490238 6.070036,-9.20358 15.340934,-16.240265 25.814454,-19.685546 7.78237,-2.560024 16.41902,-3.129282 24.09961,-0.320313 3.84012,1.404422 7.39305,3.643114 10.18945,6.621094 2.79615,2.977694 4.82114,6.705183 5.63086,10.705078 1.13163,5.59005 -0.21149,11.639989 -3.60156,16.226563 -3.39008,4.586571 -8.78098,7.644842 -14.45703,8.203122 l -0.006,0.26367 c 5.34966,0.80131 10.93386,-0.0643 15.79101,-2.445308 4.85717,-2.380962 8.96207,-6.264901 11.60547,-10.984375 4.01869,-7.174886 4.50862,-16.079811 1.9043,-23.873047 -2.60381,-7.791731 -8.13775,-14.447024 -14.97266,-18.992188 -6.83411,-4.544624 -14.90699,-7.045469 -23.06836,-7.839843 -2.04021,-0.198582 -4.08612,-0.294362 -6.13281,-0.296875 z m 0,0.265625 c 2.03877,0.0025 4.0761,0.09721 6.10742,0.294922 8.12481,0.790816 16.1559,3.28067 22.94727,7.796875 6.79055,4.515666 12.2867,11.127691 14.86914,18.855468 2.58194,7.726271 2.09277,16.556787 -1.88477,23.658204 -2.61658,4.671598 -6.68234,8.522097 -11.49023,10.878906 -4.52911,2.220156 -9.69774,3.053796 -14.70899,2.486326 5.39922,-0.79587 10.46259,-3.723055 13.70899,-8.115232 3.43629,-4.649102 4.79354,-10.769288 3.64648,-16.435547 -0.82039,-4.052618 -2.86741,-7.820524 -5.69531,-10.832032 -2.82762,-3.01122 -6.41513,-5.271949 -10.29101,-6.689453 -7.75147,-2.834887 -16.44694,-2.258136 -24.27344,0.316406 -10.53108,3.464217 -19.849065,10.537797 -25.953128,19.792969 -6.104123,9.255267 -8.938755,20.631717 -7.814453,31.662109 0.990062,9.71337 4.963123,18.98832 10.632813,26.92774 5.669351,7.93894 12.992258,14.59321 20.960938,20.20703 8.5716,6.03856 17.90551,10.91876 26.37891,17.05273 8.47245,6.13329 16.24654,13.80518 20.08007,23.51172 4.12186,10.43657 3.19833,22.62622 -1.92382,32.61523 -5.1227,9.99011 -14.25018,17.74075 -24.73829,21.75977 -10.48893,4.01934 -22.24376,4.39298 -33.14257,1.6543 C 90.604494,251.98383 80.55938,246.21291 72.251953,238.63672 53.479238,221.51642 44.210227,196.28509 39.150391,171.35742 35.629125,154.00964 33.818752,136.16326 35.888672,118.59375 37.958493,101.02506 44.082353,83.683441 55.160156,69.904297 67.7435,54.252483 86.265363,43.887599 105.86719,39.480469 c 5.9791,-1.344299 12.10439,-2.163695 18.2207,-2.15625 z"
       id="path3449"
       style="color:#000000;font-style:normal;font-variant:normal;font-weight:normal;font-stretch:normal;font-size:medium;line-height:normal;font-family:sans-serif;text-indent:0;text-align:start;text-decoration:none;text-decoration-line:none;text-decoration-style:solid;text-decoration-color:#000000;letter-spacing:normal;word-spacing:normal;text-transform:none;direction:ltr;writing-mode:lr-tb;baseline-shift:baseline;text-anchor:start;white-space:normal;clip-rule:nonzero;display:inline;overflow:visible;visibility:visible;opacity:1;isolation:auto;mix-blend-mode:normal;color-interpolation:sRGB;color-interpolation-filters:linearRGB;solid-color:#000000;solid-opacity:1;fill:#000000;fill-opacity:1;fill-rule:evenodd;stroke:none;stroke-width:0.26458332px;stroke-linecap:butt;stroke-linejoin:miter;stroke-miterlimit:4;stroke-dasharray:none;stroke-dashoffset:0;stroke-opacity:1;color-rendering:auto;image-rendering:auto;shape-rendering:auto;text-rendering:auto;enable-background:accumulate"
       inkscape:original="M 124.08789 37.058594 C 117.94781 37.051094 111.80489 37.87493 105.81055 39.222656 C 86.156923 43.641432 67.582119 54.032115 54.955078 69.738281 C 43.839191 83.564797 37.701502 100.95369 35.626953 118.5625 C 33.552501 136.17049 35.367793 154.04504 38.892578 171.41016 C 43.958018 196.36543 53.237924 221.65375 72.074219 238.83203 C 80.410682 246.4347 90.492132 252.22765 101.43945 254.97852 C 112.38738 257.72955 124.19475 257.35546 134.74023 253.31445 C 145.28657 249.27313 154.46358 241.48388 159.61914 231.42969 C 164.77527 221.37442 165.70733 209.11025 161.55469 198.5957 C 157.69378 188.81986 149.87983 181.11645 141.38477 174.9668 C 132.89064 168.81781 123.55447 163.93723 115.00195 157.91211 C 107.05135 152.31103 99.750868 145.67572 94.103516 137.76758 C 88.456504 129.85992 84.504076 120.62605 83.519531 110.9668 C 82.401641 99.999306 85.221042 88.680051 91.291016 79.476562 C 97.361052 70.272982 106.63195 63.236297 117.10547 59.791016 C 124.88784 57.230992 133.52449 56.661734 141.20508 59.470703 C 145.0452 60.875125 148.59813 63.113817 151.39453 66.091797 C 154.19068 69.069491 156.21567 72.79698 157.02539 76.796875 C 158.15702 82.386925 156.8139 88.436864 153.42383 93.023438 C 150.03375 97.610009 144.64285 100.66828 138.9668 101.22656 L 138.96094 101.49023 C 144.3106 102.29154 149.8948 101.42593 154.75195 99.044922 C 159.60912 96.66396 163.71402 92.780021 166.35742 88.060547 C 170.37611 80.885661 170.86604 71.980736 168.26172 64.1875 C 165.65791 56.395769 160.12397 49.740476 153.28906 45.195312 C 146.45495 40.650688 138.38207 38.149843 130.2207 37.355469 C 128.18049 37.156887 126.13458 37.061107 124.08789 37.058594 z M 124.08789 37.324219 C 126.12666 37.326719 128.16399 37.421429 130.19531 37.619141 C 138.32012 38.409957 146.35121 40.899811 153.14258 45.416016 C 159.93313 49.931682 165.42928 56.543707 168.01172 64.271484 C 170.59366 71.997755 170.10449 80.828271 166.12695 87.929688 C 163.51037 92.601286 159.44461 96.451785 154.63672 98.808594 C 150.10761 101.02875 144.93898 101.86239 139.92773 101.29492 C 145.32695 100.49905 150.39032 97.571865 153.63672 93.179688 C 157.07301 88.530586 158.43026 82.4104 157.2832 76.744141 C 156.46281 72.691523 154.41579 68.923617 151.58789 65.912109 C 148.76027 62.900889 145.17276 60.64016 141.29688 59.222656 C 133.54541 56.387769 124.84994 56.96452 117.02344 59.539062 C 106.49236 63.003279 97.174375 70.076859 91.070312 79.332031 C 84.966189 88.587298 82.131557 99.963748 83.255859 110.99414 C 84.245921 120.70751 88.218982 129.98246 93.888672 137.92188 C 99.558023 145.86082 106.88093 152.51509 114.84961 158.12891 C 123.42121 164.16747 132.75512 169.04767 141.22852 175.18164 C 149.70097 181.31493 157.47506 188.98682 161.30859 198.69336 C 165.43045 209.12993 164.50692 221.31958 159.38477 231.30859 C 154.26207 241.2987 145.13459 249.04934 134.64648 253.06836 C 124.15755 257.0877 112.40272 257.46134 101.50391 254.72266 C 90.604494 251.98383 80.55938 246.21291 72.251953 238.63672 C 53.479238 221.51642 44.210227 196.28509 39.150391 171.35742 C 35.629125 154.00964 33.818752 136.16326 35.888672 118.59375 C 37.958493 101.02506 44.082353 83.683441 55.160156 69.904297 C 67.7435 54.252483 86.265363 43.887599 105.86719 39.480469 C 111.84629 38.13617 117.97158 37.316774 124.08789 37.324219 z "
       inkscape:radius="0"
       sodipodi:type="inkscape:offset"
       transform="translate(272.14286,18.142858)" />
    <path
       style="color:#000000;font-style:normal;font-variant:normal;font-weight:normal;font-stretch:normal;font-size:medium;line-height:normal;font-family:sans-serif;text-indent:0;text-align:start;text-decoration:none;text-decoration-line:none;text-decoration-style:solid;text-decoration-color:#000000;letter-spacing:normal;word-spacing:normal;text-transform:none;direction:ltr;writing-mode:lr-tb;baseline-shift:baseline;text-anchor:start;white-space:normal;clip-rule:nonzero;display:inline;overflow:visible;visibility:visible;opacity:1;isolation:auto;mix-blend-mode:normal;color-interpolation:sRGB;color-interpolation-filters:linearRGB;solid-color:#000000;solid-opacity:1;fill:none;fill-opacity:1;fill-rule:evenodd;stroke:#000000;stroke-width:0.26458332px;stroke-linecap:butt;stroke-linejoin:miter;stroke-miterlimit:4;stroke-dasharray:none;stroke-dashoffset:0;stroke-opacity:1;color-rendering:auto;image-rendering:auto;shape-rendering:auto;text-rendering:auto;enable-background:accumulate"
       d="m 394.95117,45.160156 c -46.14205,0.137539 -90.42281,36.612998 -95.8125,83.146484 -6.62563,41.49687 2.89873,85.81399 25.22852,121.4668 16.96505,23.54365 46.48775,40.07388 76.0625,34.07422 25.49038,-4.98306 48.03927,-28.63897 45.84765,-55.47852 -1.18064,-20.17201 -15.42677,-38.0575 -32.89836,-47.32628 -17.83441,-11.48405 -39.11671,-22.97373 -46.27742,-44.43544 -7.82014,-22.84474 10.48074,-51.444728 35.3711,-50.921873 8.92507,-0.717818 19.93297,7.772568 16.21484,17.351563 -2.64684,8.06888 -15.06356,4.50082 -16.90625,13.125 -2.58564,6.92503 3.30802,13.75919 10.31445,13.50195 22.35591,3.04271 42.45728,-18.87356 39.98242,-40.806638 -1.71842,-23.142566 -23.31866,-40.186846 -45.29296,-42.990234 -3.9123,-0.599447 -7.87807,-0.839219 -11.83399,-0.707032 z m -29.8125,27.984375 c 5.09051,1.197065 0.19838,5.899416 -1.33203,8.126953 -21.14155,19.263036 -24.83963,53.926516 -8.27539,77.236326 12.54459,19.88466 33.784,31.4909 53.11914,43.54688 11.59996,8.19736 21.24916,23.07668 16.10547,37.61719 -6.46671,20.58762 -32.08485,30.34485 -51.53516,22.66406 -25.01985,-8.09831 -40.90099,-32.44312 -47.40983,-56.81109 -9.42381,-30.59706 -13.40068,-65.24899 -0.27181,-95.39594 7.86225,-16.550729 21.44595,-31.980501 39.59961,-36.984379 z"
       id="path3626"
       inkscape:connector-curvature="0" />
    <path
       style="color:#000000;font-style:normal;font-variant:normal;font-weight:normal;font-stretch:normal;font-size:medium;line-height:normal;font-family:sans-serif;text-indent:0;text-align:start;text-decoration:none;text-decoration-line:none;text-decoration-style:solid;text-decoration-color:#000000;letter-spacing:normal;word-spacing:normal;text-transform:none;direction:ltr;writing-mode:lr-tb;baseline-shift:baseline;text-anchor:start;white-space:normal;clip-rule:nonzero;display:inline;overflow:visible;visibility:visible;opacity:1;isolation:auto;mix-blend-mode:normal;color-interpolation:sRGB;color-interpolation-filters:linearRGB;solid-color:#000000;solid-opacity:1;fill:none;fill-opacity:1;fill-rule:evenodd;stroke:#000000;stroke-width:0.26458332px;stroke-linecap:butt;stroke-linejoin:miter;stroke-miterlimit:4;stroke-dasharray:none;stroke-dashoffset:0;stroke-opacity:1;color-rendering:auto;image-rendering:auto;shape-rendering:auto;text-rendering:auto;enable-background:accumulate"
       d="m 396.40625,34.941406 c -52.91282,-0.678013 -103.54326,42.786589 -107.79172,96.094114 -5.78509,47.63905 5.80527,98.71793 37.00898,135.90702 22.48941,23.8671 59.78468,36.0177 90.8179,22.38949 27.09795,-11.3388 46.28878,-42.81307 38.23828,-72.06641 -5.74139,-23.58361 -25.54942,-40.67375 -46.40362,-51.26646 -14.75285,-9.24375 -31.8758,-21.62558 -33.10419,-40.63978 -0.30034,-15.87248 14.76416,-32.884585 31.4375,-28.865239 1.71313,-0.42914 3.98322,3.645469 1.0332,2.902343 -11.67143,2.529566 -20.49845,15.954786 -15.07813,27.365236 4.84497,11.57657 19.0875,15.66965 30.5101,12.66785 C 452.04479,134.85898 471.29231,99.686258 458.5,72.998047 448.70659,48.674913 421.80599,34.690644 396.40625,34.941406 Z m -60.07031,76.947264 c -4.51215,24.56818 4.77497,50.71363 23.14701,67.50548 15.28124,15.59136 36.27369,23.84535 51.95846,38.80312 7.08358,8.94812 5.56759,23.33772 -4.08399,29.79492 -13.55611,11.09331 -34.27976,7.69979 -46.5957,-3.66797 -20.975,-17.03288 -27.75818,-45.0235 -32.03711,-70.2793 -3.18051,-21.18076 -2.23431,-43.68818 7.79687,-63.16406 l -0.18106,0.98347 -0.004,0.0243 z"
       id="path3646"
       inkscape:connector-curvature="0" />
    <path
       style="color:#000000;font-style:normal;font-variant:normal;font-weight:normal;font-stretch:normal;font-size:medium;line-height:normal;font-family:sans-serif;text-indent:0;text-align:start;text-decoration:none;text-decoration-line:none;text-decoration-style:solid;text-decoration-color:#000000;letter-spacing:normal;word-spacing:normal;text-transform:none;direction:ltr;writing-mode:lr-tb;baseline-shift:baseline;text-anchor:start;white-space:normal;clip-rule:nonzero;display:inline;overflow:visible;visibility:visible;opacity:1;isolation:auto;mix-blend-mode:normal;color-interpolation:sRGB;color-interpolation-filters:linearRGB;solid-color:#000000;solid-opacity:1;fill:none;fill-opacity:1;fill-rule:evenodd;stroke:#000000;stroke-width:0.26458332px;stroke-linecap:butt;stroke-linejoin:miter;stroke-miterlimit:4;stroke-dasharray:none;stroke-dashoffset:0;stroke-opacity:1;color-rendering:auto;image-rendering:auto;shape-rendering:auto;text-rendering:auto;enable-background:accumulate"
       d="m 395.2207,24.90625 c -60.34322,-0.655837 -115.94792,52.362053 -117.48889,112.82532 -3.94501,51.29732 10.52619,106.28483 48.01624,143.02234 29.83184,27.91592 80.77122,33.21454 113.21219,6.7661 26.96515,-21.45415 36.72471,-64.00595 16.77804,-93.27392 -12.40116,-19.61873 -32.8222,-31.98144 -52.05469,-43.99609 14.47354,0.46422 29.9595,-0.21524 42.17969,-9.00391 28.26366,-18.11832 35.66673,-61.993986 13.16797,-87.486324 C 443.68238,35.012583 419.35728,24.331345 395.2207,24.90625 Z m -55.07812,148.31641 c 16.10122,20.39887 38.72564,33.91249 59.9668,48.17773 5.87296,4.68553 7.46195,14.69981 0.55859,19.0957 -11.60079,8.86429 -28.4589,2.7837 -37.32227,-7.27734 -16.05005,-16.38902 -21.63648,-39.85655 -24.59375,-61.77148 0.46354,0.59179 0.92709,1.18359 1.39063,1.77539 z"
       id="path3658"
       inkscape:connector-curvature="0" />
  </g>
</svg>
