<?xml version="1.0" encoding="UTF-8" standalone="no"?>
<!-- Created with Inkscape (http://www.inkscape.org/) -->

<svg
   xmlns:dc="http://purl.org/dc/elements/1.1/"
   xmlns:cc="http://creativecommons.org/ns#"
   xmlns:rdf="http://www.w3.org/1999/02/22-rdf-syntax-ns#"
   xmlns:svg="http://www.w3.org/2000/svg"
   xmlns="http://www.w3.org/2000/svg"
   xmlns:sodipodi="http://sodipodi.sourceforge.net/DTD/sodipodi-0.dtd"
   xmlns:inkscape="http://www.inkscape.org/namespaces/inkscape"
   width="210mm"
   height="297mm"
   viewBox="0 0 210 297"
   version="1.1"
   id="svg8"
   inkscape:version="0.92.0 r"
   sodipodi:docname="paisley.svg">
  <sodipodi:namedview
     id="base"
     pagecolor="#ffffff"
     bordercolor="#666666"
     borderopacity="1.0"
     inkscape:pageopacity="0.0"
     inkscape:pageshadow="2"
     inkscape:zoom="0.49497475"
     inkscape:cx="-57.480499"
     inkscape:cy="661.46225"
     inkscape:document-units="mm"
     inkscape:current-layer="layer1"
     showgrid="false"
     inkscape:window-width="1920"
     inkscape:window-height="1016"
     inkscape:window-x="0"
     inkscape:window-y="27"
     inkscape:window-maximized="1" />
  <defs
     id="defs2">
    <inkscape:path-effect
       effect="spiro"
       id="path-effect6940"
       is_visible="true" />
    <inkscape:path-effect
       effect="spiro"
       id="path-effect4499"
       is_visible="true" />
    <inkscape:path-effect
       is_visible="true"
       id="path-effect35"
       effect="spiro" />
    <inkscape:path-effect
       is_visible="true"
       id="path-effect31"
       effect="spiro" />
  </defs>
  <metadata
     id="metadata5">
    <rdf:RDF>
      <cc:Work
         rdf:about="">
        <dc:format>image/svg+xml</dc:format>
        <dc:type
           rdf:resource="http://purl.org/dc/dcmitype/StillImage" />
        <dc:title></dc:title>
      </cc:Work>
    </rdf:RDF>
  </metadata>
  <g
     id="layer1"
     inkscape:groupmode="layer"
     inkscape:label="Layer 1">
    <path
       sodipodi:nodetypes="csscssc"
       inkscape:original-d="m -48.380961,2.1785713 c -3.402052,-3.02354497 -1.007674,9.8271157 -1.511906,14.7410717 -0.504232,4.913954 -7.055292,11.339021 -10.583333,17.008928 -3.528042,5.669907 18.64427,47.337866 11.339287,35.529762 4.157472,12.347486 2.646095,-21.166933 1.133928,-26.836311 -1.512171,-5.669378 6.551851,-20.914946 9.82738,-31.372022 3.275529,-10.45707686 -23.434259,-14.3633599 -10.205356,-9.0714287 z"
       inkscape:path-effect="#path-effect31"
       inkscape:connector-curvature="0"
       id="path29"
       d="m -48.380961,2.1785713 c 1.013729,4.9137479 0.478174,10.1354067 -1.511906,14.7410717 -2.653262,6.140475 -7.694968,10.975472 -10.583333,17.008928 -2.957349,6.177556 -3.46104,13.489633 -1.378684,20.014347 2.082356,6.524715 6.728762,12.193144 12.717971,15.515415 -2.852631,-8.692927 -2.441839,-18.415006 1.133928,-26.836311 2.208032,-5.200147 5.541261,-9.849244 7.93192,-14.968002 1.19533,-2.559379 2.156036,-5.249205 2.573587,-8.042927 0.417551,-2.793722 0.275564,-5.702201 -0.678127,-8.361093 -1.602534,-4.4678673 -5.580418,-8.0037649 -10.205356,-9.0714287 z"
       style="fill:#000000;fill-rule:evenodd;stroke:#000000;stroke-width:0.26458332px;stroke-linecap:butt;stroke-linejoin:miter;stroke-opacity:1" />
    <circle
       r="8.3154764"
       cy="-15.208332"
       cx="-44.601196"
       id="path3688"
       style="fill:#000000;stroke:#000000;stroke-width:0.26458332" />
    <path
       style="fill:none;fill-rule:evenodd;stroke:#000000;stroke-width:0.26458332px;stroke-linecap:butt;stroke-linejoin:miter;stroke-opacity:1"
       d="m -22.980945,2.1785713 c 1.013729,4.9137479 0.478174,10.1354067 -1.511906,14.7410717 -2.653262,6.140475 -7.694968,10.975472 -10.583333,17.008928 -2.957349,6.177556 -3.46104,13.489633 -1.378684,20.014347 2.082356,6.524715 6.728762,12.193144 12.717971,15.515415 -2.852631,-8.692927 -2.441839,-18.415006 1.133928,-26.836311 2.208032,-5.200147 5.541261,-9.849244 7.93192,-14.968002 1.19533,-2.559379 2.156036,-5.249205 2.573587,-8.042927 0.417551,-2.793722 0.275564,-5.702201 -0.678127,-8.361093 -1.602534,-4.4678673 -5.580418,-8.0037649 -10.205356,-9.0714287 z"
       id="path4497"
       inkscape:connector-curvature="0"
       inkscape:path-effect="#path-effect4499"
       inkscape:original-d="m -22.980945,2.1785713 c -3.402052,-3.02354497 -1.007674,9.8271157 -1.511906,14.7410717 -0.504232,4.913954 -7.055292,11.339021 -10.583333,17.008928 -3.528042,5.669907 18.64427,47.337866 11.339287,35.529762 4.157472,12.347486 2.646095,-21.166933 1.133928,-26.836311 C -24.11514,36.952644 -16.051118,21.707076 -12.775589,11.25 -9.5000603,0.79292314 -36.209848,-3.1133599 -22.980945,2.1785713 Z"
       sodipodi:nodetypes="csscssc" />
    <path
       inkscape:transform-center-y="-4.7332008"
       inkscape:transform-center-x="-1.4761905e-06"
       d="m -7.7941966,108.0289 -16.3962824,0 -16.396283,0 8.198141,-14.199599 8.198142,-14.199597 8.198141,14.199597 z"
       inkscape:randomized="0"
       inkscape:rounded="0"
       inkscape:flatsided="false"
       sodipodi:arg2="1.5707963"
       sodipodi:arg1="0.52359878"
       sodipodi:r2="9.4663982"
       sodipodi:r1="18.932796"
       sodipodi:cy="98.562498"
       sodipodi:cx="-24.19048"
       sodipodi:sides="3"
       id="path4503"
       style="fill:none;stroke:#000000;stroke-width:0.52916664;stroke-miterlimit:4;stroke-dasharray:none"
       sodipodi:type="star" />
    <path
       sodipodi:type="star"
       style="fill:#000000;stroke:#000000;stroke-width:0.52916664;stroke-miterlimit:4;stroke-dasharray:none"
       id="path4507"
       sodipodi:sides="3"
       sodipodi:cx="-65.011908"
       sodipodi:cy="98.5625"
       sodipodi:r1="18.932796"
       sodipodi:r2="9.4663982"
       sodipodi:arg1="0.52359878"
       sodipodi:arg2="1.5707963"
       inkscape:flatsided="false"
       inkscape:rounded="0"
       inkscape:randomized="0"
       d="m -48.615627,108.0289 -16.396282,0 -16.396283,0 8.198141,-14.199599 8.198142,-14.199597 8.198141,14.199597 z"
       inkscape:transform-center-x="-1.4761905e-06"
       inkscape:transform-center-y="-4.7332008" />
    <g
       id="g6782">
      <path
         sodipodi:type="star"
         style="fill:#000000;stroke:#000000;stroke-width:0.52916664;stroke-miterlimit:4;stroke-dasharray:none"
         id="path4509"
         sodipodi:sides="3"
         sodipodi:cx="-66.145838"
         sodipodi:cy="138.62798"
         sodipodi:r1="18.932796"
         sodipodi:r2="9.4663982"
         sodipodi:arg1="0.52359878"
         sodipodi:arg2="1.5707963"
         inkscape:flatsided="false"
         inkscape:rounded="0"
         inkscape:randomized="0"
         d="m -49.749553,148.09437 -16.396283,0 -16.396283,0 8.198142,-14.19959 8.198141,-14.1996 8.198141,14.1996 z"
         inkscape:transform-center-x="-1.4761905e-06"
         inkscape:transform-center-y="-4.7332008" />
      <circle
         r="8.3154764"
         cy="139.00597"
         cx="-66.145836"
         id="circle4511"
         style="fill:#ffffff;stroke:#000000;stroke-width:0.26458332" />
    </g>
    <g
       id="g6890">
      <path
         style="fill:#000000;stroke:#000000;stroke-width:0.52916664;stroke-miterlimit:4;stroke-dasharray:none"
         inkscape:transform-center-x="-1.4761905e-06"
         inkscape:transform-center-y="-4.7332008"
         d="M -8.6446414,148.09437 H -25.040924 -41.437207 c 0,0 9.229297,-28.4415 16.396283,-28.39919 6.62797,-0.094 16.3962826,28.39919 16.3962826,28.39919 z"
         id="path4513"
         inkscape:connector-curvature="0"
         sodipodi:nodetypes="ccccc" />
      <circle
         style="fill:#ffffff;stroke:#000000;stroke-width:0.26458332"
         id="circle4515"
         cx="-25.040926"
         cy="139.00597"
         r="8.3154764" />
    </g>
    <path
       sodipodi:nodetypes="cscsc"
       inkscape:connector-curvature="0"
       id="path4518"
       d="m -50.648809,175.76414 c 0,0 -7.530536,7.27605 -16.819941,7.27605 -9.289405,0 -16.819941,-7.27605 -16.819941,-7.27605 0,0 7.530545,-7.27604 16.819941,-7.27604 9.289396,0 16.819941,7.27604 16.819941,7.27604 z"
       style="fill:#000000;stroke:#000000;stroke-width:0.52916664;stroke-miterlimit:4;stroke-dasharray:none" />
    <path
       style="fill:#ffffff;stroke:#000000;stroke-width:0.52916664;stroke-miterlimit:4;stroke-dasharray:none"
       d="m -9.8273804,175.76414 c 0,0 -7.5305356,7.27605 -16.8199406,7.27605 -9.289405,0 -16.819941,-7.27605 -16.819941,-7.27605 0,0 7.530545,-7.27604 16.819941,-7.27604 9.289396,0 16.8199406,7.27604 16.8199406,7.27604 z"
       id="path4521"
       inkscape:connector-curvature="0"
       sodipodi:nodetypes="cscsc" />
    <path
       style="fill:#000000;stroke:#000000;stroke-width:0.52916664;stroke-miterlimit:4;stroke-dasharray:none"
       d="m -46.302083,196.21278 c 0,0 -11.877262,7.46504 -21.166667,7.46504 0,0 -11.702668,-0.76273 -12.284227,-7.65403 -0.460003,-5.45089 12.284227,-6.89806 12.284227,-6.89806 8.344455,0.37797 21.166667,7.08705 21.166667,7.08705 z"
       id="path4523"
       inkscape:connector-curvature="0"
       sodipodi:nodetypes="csssc" />
    <path
       sodipodi:nodetypes="csssc"
       inkscape:connector-curvature="0"
       id="path4525"
       d="m -8.2020602,196.21278 c 0,0 -11.8772608,7.46504 -21.1666658,7.46504 0,0 -11.702668,-0.76273 -12.284227,-7.65403 -0.460003,-5.45089 12.284227,-6.89806 12.284227,-6.89806 8.344455,0.37797 21.1666658,7.08705 21.1666658,7.08705 z"
       style="fill:#ffffff;stroke:#000000;stroke-width:0.52916664;stroke-miterlimit:4;stroke-dasharray:none" />
    <path
       sodipodi:nodetypes="ccccc"
       inkscape:connector-curvature="0"
       id="path4530"
       d="m -150.75244,14.585293 11.76607,-20.3794299 11.76608,-20.3794421 11.76607,20.3794421 11.76607,20.3794399"
       inkscape:transform-center-y="-6.7931477"
       inkscape:transform-center-x="-2.1415234e-06"
       style="fill:#ffffff;stroke:#000000;stroke-width:0.52916664;stroke-miterlimit:4;stroke-dasharray:none" />
    <circle
       style="fill:none;stroke:#000000;stroke-width:0.23865417;stroke-miterlimit:4;stroke-dasharray:none"
       id="circle3690"
       cx="-20.032745"
       cy="-15.586308"
       r="8.3154764" />
    <g
       id="g6730"
       transform="translate(42.763124,-126.15122)">
      <circle
         transform="rotate(-59.999988,80.953762,240.57877)"
         style="fill:none;stroke:#000000;stroke-width:0.23865417;stroke-miterlimit:4;stroke-dasharray:none"
         id="circle6717"
         cx="-20.032745"
         cy="-15.586308"
         r="8.3154764" />
      <circle
         transform="rotate(-59.999988,73.109712,226.99247)"
         style="fill:none;stroke:#000000;stroke-width:0.23865417;stroke-miterlimit:4;stroke-dasharray:none"
         id="circle9233"
         cx="-20.032745"
         cy="-15.586308"
         r="8.3154764" />
      <circle
         transform="rotate(-59.999988,65.26566,213.40617)"
         style="fill:none;stroke:#000000;stroke-width:0.23865417;stroke-miterlimit:4;stroke-dasharray:none"
         id="circle1016"
         cx="-20.032745"
         cy="-15.586308"
         r="8.3154764" />
      <circle
         transform="matrix(0.5,0.866026,-0.866026,0.5,-171.8541,184.33622)"
         style="fill:none;stroke:#000000;stroke-width:0.23865417;stroke-miterlimit:4;stroke-dasharray:none"
         id="circle9788"
         cx="-20.032745"
         cy="-15.586308"
         r="8.3154764" />
      <circle
         transform="matrix(0.5,0.866026,-0.866026,0.5,-164.01006,197.92252)"
         style="fill:none;stroke:#000000;stroke-width:0.23865417;stroke-miterlimit:4;stroke-dasharray:none"
         id="circle1478"
         cx="-20.032745"
         cy="-15.586308"
         r="8.3154764" />
      <circle
         transform="rotate(59.999988,-261.25511,-29.489279)"
         style="fill:none;stroke:#000000;stroke-width:0.23865417;stroke-miterlimit:4;stroke-dasharray:none"
         id="circle1252"
         cx="-20.032745"
         cy="-15.586308"
         r="8.3154764" />
      <circle
         transform="rotate(59.999988,-269.09916,-15.902981)"
         style="fill:none;stroke:#000000;stroke-width:0.23865417;stroke-miterlimit:4;stroke-dasharray:none"
         id="circle7539"
         cx="-20.032745"
         cy="-15.586308"
         r="8.3154764" />
    </g>
    <g
       id="g6886"
       transform="translate(42.763124,-126.15122)">
      <g
         transform="translate(-0.56084202,69.639038)"
         id="g6778">
        <circle
           transform="rotate(-59.999988,80.953762,240.57877)"
           style="fill:none;stroke:#000000;stroke-width:0.23865417;stroke-miterlimit:4;stroke-dasharray:none"
           id="circle6764"
           cx="-20.032745"
           cy="-15.586308"
           r="8.3154764" />
        <circle
           transform="rotate(-59.999988,73.109712,226.99247)"
           style="fill:none;stroke:#000000;stroke-width:0.23865417;stroke-miterlimit:4;stroke-dasharray:none"
           id="circle6766"
           cx="-20.032745"
           cy="-15.586308"
           r="8.3154764" />
        <circle
           transform="rotate(-59.999988,65.26566,213.40617)"
           style="fill:none;stroke:#000000;stroke-width:0.23865417;stroke-miterlimit:4;stroke-dasharray:none"
           id="circle6768"
           cx="-20.032745"
           cy="-15.586308"
           r="8.3154764" />
        <circle
           transform="matrix(0.5,0.866026,-0.866026,0.5,-171.8541,184.33622)"
           style="fill:none;stroke:#000000;stroke-width:0.23865417;stroke-miterlimit:4;stroke-dasharray:none"
           id="circle6770"
           cx="-20.032745"
           cy="-15.586308"
           r="8.3154764" />
        <circle
           transform="matrix(0.5,0.866026,-0.866026,0.5,-164.01006,197.92252)"
           style="fill:none;stroke:#000000;stroke-width:0.23865417;stroke-miterlimit:4;stroke-dasharray:none"
           id="circle6772"
           cx="-20.032745"
           cy="-15.586308"
           r="8.3154764" />
        <circle
           transform="rotate(59.999988,-261.25511,-29.489279)"
           style="fill:none;stroke:#000000;stroke-width:0.23865417;stroke-miterlimit:4;stroke-dasharray:none"
           id="circle6774"
           cx="-20.032745"
           cy="-15.586308"
           r="8.3154764" />
        <circle
           transform="rotate(59.999988,-269.09916,-15.902981)"
           style="fill:none;stroke:#000000;stroke-width:0.23865417;stroke-miterlimit:4;stroke-dasharray:none"
           id="circle6776"
           cx="-20.032745"
           cy="-15.586308"
           r="8.3154764" />
      </g>
      <g
         transform="translate(-103.16604,119.20221)"
         id="g6873">
        <path
           sodipodi:type="star"
           style="fill:#000000;stroke:#000000;stroke-width:0.52916664;stroke-miterlimit:4;stroke-dasharray:none"
           id="path6869"
           sodipodi:sides="3"
           sodipodi:cx="-66.145836"
           sodipodi:cy="138.62798"
           sodipodi:r1="18.932796"
           sodipodi:r2="9.4663982"
           sodipodi:arg1="0.52359878"
           sodipodi:arg2="1.5707963"
           inkscape:flatsided="false"
           inkscape:rounded="0"
           inkscape:randomized="0"
           d="m -49.749553,148.09437 -16.396283,0 -16.396283,0 8.198142,-14.19959 8.198141,-14.1996 8.198141,14.1996 z"
           inkscape:transform-center-x="-1.4761905e-06"
           inkscape:transform-center-y="-4.7332008" />
        <circle
           r="8.3154764"
           cy="139.00597"
           cx="-66.145836"
           id="circle6871"
           style="fill:#ffffff;stroke:#000000;stroke-width:0.26458332" />
      </g>
    </g>
    <path
       style="color:#000000;font-style:normal;font-variant:normal;font-weight:normal;font-stretch:normal;font-size:medium;line-height:normal;font-family:sans-serif;font-variant-ligatures:normal;font-variant-position:normal;font-variant-caps:normal;font-variant-numeric:normal;font-variant-alternates:normal;font-feature-settings:normal;text-indent:0;text-align:start;text-decoration:none;text-decoration-line:none;text-decoration-style:solid;text-decoration-color:#000000;letter-spacing:normal;word-spacing:normal;text-transform:none;writing-mode:lr-tb;direction:ltr;text-orientation:mixed;dominant-baseline:auto;baseline-shift:baseline;text-anchor:start;white-space:normal;shape-padding:0;clip-rule:nonzero;display:inline;overflow:visible;visibility:visible;opacity:1;isolation:auto;mix-blend-mode:normal;color-interpolation:sRGB;color-interpolation-filters:linearRGB;solid-color:#000000;solid-opacity:1;vector-effect:none;fill:#000000;fill-opacity:1;fill-rule:evenodd;stroke:none;stroke-width:0.26458332px;stroke-linecap:butt;stroke-linejoin:miter;stroke-miterlimit:4;stroke-dasharray:none;stroke-dashoffset:0;stroke-opacity:1;color-rendering:auto;image-rendering:auto;shape-rendering:auto;text-rendering:auto;enable-background:accumulate"
       d="m 124.08789,37.058594 c -6.14008,-0.0075 -12.283,0.816336 -18.27734,2.164062 C 86.156926,43.641432 67.582119,54.032115 54.955078,69.738281 43.839191,83.564797 37.701502,100.95369 35.626953,118.5625 c -2.074452,17.60799 -0.25916,35.48254 3.265625,52.84766 5.06544,24.95527 14.345346,50.24359 33.181641,67.42187 8.336463,7.60267 18.41791,13.39562 29.365231,16.14649 10.94793,2.75103 22.7553,2.37694 33.30078,-1.66407 10.54634,-4.04132 19.72335,-11.83057 24.87891,-21.88476 5.15613,-10.05527 6.08819,-22.31944 1.93555,-32.83399 -3.86091,-9.77584 -11.67486,-17.47925 -20.16992,-23.6289 -8.49413,-6.14899 -17.8303,-11.02957 -26.38282,-17.05469 -7.9506,-5.60108 -15.251082,-12.23639 -20.898434,-20.14453 -5.647012,-7.90766 -9.59944,-17.14153 -10.583985,-26.80078 -1.11789,-10.967491 1.701511,-22.28675 7.771485,-31.490238 6.070036,-9.20358 15.340934,-16.240265 25.814454,-19.685546 7.78237,-2.560024 16.41902,-3.129282 24.09961,-0.320313 3.84012,1.404422 7.39305,3.643114 10.18945,6.621094 2.79615,2.977694 4.82114,6.705183 5.63086,10.705078 1.13163,5.59005 -0.21149,11.63999 -3.60156,16.226563 -3.39008,4.586571 -8.78098,7.644842 -14.45703,8.203122 l -0.006,0.26367 c 5.34966,0.80131 10.93386,-0.0643 15.79101,-2.445308 4.85717,-2.380962 8.96207,-6.264901 11.60547,-10.984375 4.01869,-7.174886 4.50862,-16.079811 1.9043,-23.873047 -2.60381,-7.791731 -8.13775,-14.447024 -14.97266,-18.992188 -6.83411,-4.544625 -14.90699,-7.045469 -23.06836,-7.839843 -2.04021,-0.198582 -4.08612,-0.294362 -6.13281,-0.296875 z m 0,0.265625 c 2.03877,0.0025 4.0761,0.09721 6.10742,0.294922 8.12481,0.790816 16.1559,3.28067 22.94727,7.796875 6.79055,4.515666 12.2867,11.127691 14.86914,18.855468 2.58194,7.726271 2.09277,16.556787 -1.88477,23.658204 -2.61658,4.671598 -6.68234,8.522097 -11.49023,10.878906 -4.52911,2.220156 -9.69774,3.053796 -14.70899,2.486326 5.39922,-0.79587 10.46259,-3.723054 13.70899,-8.115232 3.43629,-4.649102 4.79354,-10.769288 3.64648,-16.435547 -0.82039,-4.052618 -2.86741,-7.820524 -5.69531,-10.832032 -2.82762,-3.01122 -6.41512,-5.271949 -10.29101,-6.689453 -7.75146,-2.834887 -16.44694,-2.258136 -24.27344,0.316406 -10.53108,3.464216 -19.849065,10.537797 -25.953128,19.792969 -6.104123,9.255267 -8.938755,20.631716 -7.814453,31.662109 0.990062,9.71337 4.963123,18.98832 10.632813,26.92774 5.669351,7.93894 12.992258,14.59321 20.960938,20.20703 8.5716,6.03856 17.90551,10.91876 26.37891,17.05273 8.47245,6.13329 16.24654,13.80518 20.08007,23.51172 4.12186,10.43657 3.19833,22.62622 -1.92382,32.61523 -5.1227,9.99011 -14.25018,17.74075 -24.73829,21.75977 -10.48893,4.01934 -22.24376,4.39298 -33.14257,1.6543 C 90.604498,251.98383 80.55938,246.21291 72.251953,238.63672 53.479238,221.51642 44.210227,196.28509 39.150391,171.35742 35.629125,154.00964 33.818752,136.16326 35.888672,118.59375 37.958493,101.02506 44.082353,83.683441 55.160156,69.904297 67.7435,54.252483 86.265366,43.887599 105.86719,39.480469 c 5.9791,-1.344299 12.10439,-2.163695 18.2207,-2.15625 z"
       id="path6938"
       inkscape:connector-curvature="0" />
  </g>
</svg>
