<?xml version="1.0" encoding="UTF-8" standalone="no"?>
<!-- Created with Inkscape (http://www.inkscape.org/) -->

<svg
   xmlns:dc="http://purl.org/dc/elements/1.1/"
   xmlns:cc="http://creativecommons.org/ns#"
   xmlns:rdf="http://www.w3.org/1999/02/22-rdf-syntax-ns#"
   xmlns:svg="http://www.w3.org/2000/svg"
   xmlns="http://www.w3.org/2000/svg"
   xmlns:sodipodi="http://sodipodi.sourceforge.net/DTD/sodipodi-0.dtd"
   xmlns:inkscape="http://www.inkscape.org/namespaces/inkscape"
   width="210mm"
   height="297mm"
   viewBox="0 0 210 297"
   version="1.1"
   id="svg196"
   inkscape:version="0.92.0 r"
   sodipodi:docname="tily.svg">
  <defs
     id="defs190" />
  <sodipodi:namedview
     id="base"
     pagecolor="#ffffff"
     bordercolor="#666666"
     borderopacity="1.0"
     inkscape:pageopacity="0.0"
     inkscape:pageshadow="2"
     inkscape:zoom="0.7"
     inkscape:cx="144.58121"
     inkscape:cy="1042.764"
     inkscape:document-units="mm"
     inkscape:current-layer="layer5"
     showgrid="false"
     showguides="true"
     inkscape:guide-bbox="true"
     inkscape:window-width="1920"
     inkscape:window-height="1016"
     inkscape:window-x="0"
     inkscape:window-y="27"
     inkscape:window-maximized="1">
    <sodipodi:guide
       position="-45.703088,190.29591"
       orientation="0,1"
       id="guide289"
       inkscape:locked="false" />
    <sodipodi:guide
       position="107.97689,184.95052"
       orientation="1,0"
       id="guide291"
       inkscape:locked="false" />
  </sodipodi:namedview>
  <metadata
     id="metadata193">
    <rdf:RDF>
      <cc:Work
         rdf:about="">
        <dc:format>image/svg+xml</dc:format>
        <dc:type
           rdf:resource="http://purl.org/dc/dcmitype/StillImage" />
        <dc:title></dc:title>
      </cc:Work>
    </rdf:RDF>
  </metadata>
  <g
     inkscape:label="Layer 1"
     inkscape:groupmode="layer"
     id="layer1"
     style="display:none">
    <g
       id="g219">
      <g
         id="g205">
        <path
           style="fill:#000000;stroke:#000000;stroke-width:0.26458332"
           d="m 121.60763,77.571716 c 0,21.698494 -5.47902,39.288624 -5.47902,39.288624 0,0 -5.47903,-17.590102 -5.47903,-39.288624 0,-21.698522 5.47903,-39.288624 5.47903,-39.288624 0,0 5.47902,17.59013 5.47902,39.288624 z"
           id="path198"
           inkscape:connector-curvature="0"
           sodipodi:nodetypes="scscs" />
        <circle
           style="fill:#000000;stroke:#000000;stroke-width:0.26458332"
           id="path201"
           cx="122.43095"
           cy="111.73923"
           r="4.2763124" />
      </g>
      <g
         transform="rotate(-180,116.03262,116.99486)"
         id="g211">
        <path
           sodipodi:nodetypes="scscs"
           inkscape:connector-curvature="0"
           id="path207"
           d="m 121.60763,77.571716 c 0,21.698494 -5.47902,39.288624 -5.47902,39.288624 0,0 -5.47903,-17.590102 -5.47903,-39.288624 0,-21.698522 5.47903,-39.288624 5.47903,-39.288624 0,0 5.47902,17.59013 5.47902,39.288624 z"
           style="fill:#000000;stroke:#000000;stroke-width:0.26458332" />
        <circle
           r="4.2763124"
           cy="111.73923"
           cx="122.43095"
           id="circle209"
           style="fill:#000000;stroke:#000000;stroke-width:0.26458332" />
      </g>
    </g>
    <g
       id="g233"
       transform="rotate(90,116.03262,116.99486)">
      <g
         id="g225">
        <path
           sodipodi:nodetypes="scscs"
           inkscape:connector-curvature="0"
           id="path221"
           d="m 121.60763,77.571716 c 0,21.698494 -5.47902,39.288624 -5.47902,39.288624 0,0 -5.47903,-17.590102 -5.47903,-39.288624 0,-21.698522 5.47903,-39.288624 5.47903,-39.288624 0,0 5.47902,17.59013 5.47902,39.288624 z"
           style="fill:#000000;stroke:#000000;stroke-width:0.26458332" />
        <circle
           r="4.2763124"
           cy="111.73923"
           cx="122.43095"
           id="circle223"
           style="fill:#000000;stroke:#000000;stroke-width:0.26458332" />
      </g>
      <g
         id="g231"
         transform="rotate(-180,116.03262,116.99486)">
        <path
           style="fill:#000000;stroke:#000000;stroke-width:0.26458332"
           d="m 121.60763,77.571716 c 0,21.698494 -5.47902,39.288624 -5.47902,39.288624 0,0 -5.47903,-17.590102 -5.47903,-39.288624 0,-21.698522 5.47903,-39.288624 5.47903,-39.288624 0,0 5.47902,17.59013 5.47902,39.288624 z"
           id="path227"
           inkscape:connector-curvature="0"
           sodipodi:nodetypes="scscs" />
        <circle
           style="fill:#000000;stroke:#000000;stroke-width:0.26458332"
           id="circle229"
           cx="122.43095"
           cy="111.73923"
           r="4.2763124" />
      </g>
    </g>
  </g>
  <g
     inkscape:groupmode="layer"
     id="layer2"
     inkscape:label="Layer 2"
     style="display:none">
    <g
       id="g267">
      <g
         id="g253">
        <path
           style="fill:#000000;stroke:#000000;stroke-width:0.26458332"
           d="m 113.85681,60.733734 c 0,19.189139 -6.949,34.745037 -6.949,34.745037 0,0 -6.949011,-15.555876 -6.949011,-34.745037 0,-19.189161 6.949011,-34.745037 6.949011,-34.745037 0,0 6.949,15.555898 6.949,34.745037 z"
           id="path236"
           inkscape:connector-curvature="0"
           sodipodi:nodetypes="scscs" />
        <circle
           style="fill:#000000;stroke:#000000;stroke-width:0.21534701"
           id="path239"
           cx="113.88905"
           cy="90.662552"
           r="4.5682001" />
      </g>
      <g
         transform="rotate(180,106.82681,95.129522)"
         id="g259">
        <path
           sodipodi:nodetypes="scscs"
           inkscape:connector-curvature="0"
           id="path255"
           d="m 113.85681,60.733734 c 0,19.189139 -6.949,34.745037 -6.949,34.745037 0,0 -6.949011,-15.555876 -6.949011,-34.745037 0,-19.189161 6.949011,-34.745037 6.949011,-34.745037 0,0 6.949,15.555898 6.949,34.745037 z"
           style="fill:#000000;stroke:#000000;stroke-width:0.26458332" />
        <circle
           r="4.5682001"
           cy="90.662552"
           cx="113.88905"
           id="circle257"
           style="fill:#000000;stroke:#000000;stroke-width:0.21534701" />
      </g>
    </g>
    <g
       id="g281"
       transform="rotate(90,106.82681,95.129522)">
      <g
         id="g273">
        <path
           sodipodi:nodetypes="scscs"
           inkscape:connector-curvature="0"
           id="path269"
           d="m 113.85681,60.733734 c 0,19.189139 -6.949,34.745037 -6.949,34.745037 0,0 -6.949011,-15.555876 -6.949011,-34.745037 0,-19.189161 6.949011,-34.745037 6.949011,-34.745037 0,0 6.949,15.555898 6.949,34.745037 z"
           style="fill:#000000;stroke:#000000;stroke-width:0.26458332" />
        <circle
           r="4.5682001"
           cy="90.662552"
           cx="113.88905"
           id="circle271"
           style="fill:#000000;stroke:#000000;stroke-width:0.21534701" />
      </g>
      <g
         id="g279"
         transform="rotate(180,106.82681,95.129522)">
        <path
           style="fill:#000000;stroke:#000000;stroke-width:0.26458332"
           d="m 113.85681,60.733734 c 0,19.189139 -6.949,34.745037 -6.949,34.745037 0,0 -6.949011,-15.555876 -6.949011,-34.745037 0,-19.189161 6.949011,-34.745037 6.949011,-34.745037 0,0 6.949,15.555898 6.949,34.745037 z"
           id="path275"
           inkscape:connector-curvature="0"
           sodipodi:nodetypes="scscs" />
        <circle
           style="fill:#000000;stroke:#000000;stroke-width:0.21534701"
           id="circle277"
           cx="113.88905"
           cy="90.662552"
           r="4.5682001" />
      </g>
    </g>
  </g>
  <g
     inkscape:groupmode="layer"
     id="layer3"
     inkscape:label="Layer 3"
     style="display:inline">
    <g
       id="g309">
      <g
         id="g295">
        <path
           style="fill:#000000;stroke:#000000;stroke-width:0.26458332"
           d="m 107.97152,70.478332 c 0,20.000998 -8.285355,36.215028 -8.285355,36.215028 0,0 -8.285356,-16.214023 -8.285356,-36.215028 0,-20.001003 8.285356,-36.215019 8.285356,-36.215019 0,0 8.285355,16.214022 8.285355,36.215019 z"
           id="path284"
           inkscape:connector-curvature="0"
           sodipodi:nodetypes="scscs" />
        <circle
           style="fill:#000000;stroke:#000000;stroke-width:0.26458332"
           id="path287"
           cx="104.99463"
           cy="103.61907"
           r="3.2072344" />
      </g>
      <g
         transform="rotate(180,99.801336,106.79261)"
         id="g301">
        <path
           sodipodi:nodetypes="scscs"
           inkscape:connector-curvature="0"
           id="path297"
           d="m 107.97152,70.478332 c 0,20.000998 -8.285355,36.215028 -8.285355,36.215028 0,0 -8.285356,-16.214023 -8.285356,-36.215028 0,-20.001003 8.285356,-36.215019 8.285356,-36.215019 0,0 8.285355,16.214022 8.285355,36.215019 z"
           style="fill:#000000;stroke:#000000;stroke-width:0.26458332" />
        <circle
           r="3.2072344"
           cy="103.61907"
           cx="104.99463"
           id="circle299"
           style="fill:#000000;stroke:#000000;stroke-width:0.26458332" />
      </g>
    </g>
    <g
       id="g365"
       transform="translate(132.08399,26.674105)">
      <path
         style="fill:#000000;stroke:#000000;stroke-width:0.26458332"
         d="m 3.817198,88.50311 c -20.000998,0 -36.215028,-8.285355 -36.215028,-8.285355 0,0 16.214023,-8.285356 36.215028,-8.285356 20.001003,0 36.215019,8.285356 36.215019,8.285356 0,0 -16.214022,8.285355 -36.215019,8.285355 z"
         id="path311"
         inkscape:connector-curvature="0"
         sodipodi:nodetypes="scscs" />
      <path
         sodipodi:nodetypes="scscs"
         inkscape:connector-curvature="0"
         id="path317"
         d="m -68.811362,72.162746 c 20.000998,0 36.215028,8.285355 36.215028,8.285355 0,0 -16.214023,8.285356 -36.215028,8.285356 -20.001003,0 -36.215018,-8.285356 -36.215018,-8.285356 0,0 16.214021,-8.285355 36.215018,-8.285355 z"
         style="fill:#000000;stroke:#000000;stroke-width:0.26458332" />
    </g>
    <g
       id="g351"
       transform="matrix(-1,0,0,1,199.60267,0)">
      <g
         id="g343">
        <path
           sodipodi:nodetypes="scscs"
           inkscape:connector-curvature="0"
           id="path339"
           d="m 107.97152,70.478332 c 0,20.000998 -8.285355,36.215028 -8.285355,36.215028 0,0 -8.285356,-16.214023 -8.285356,-36.215028 0,-20.001003 8.285356,-36.215019 8.285356,-36.215019 0,0 8.285355,16.214022 8.285355,36.215019 z"
           style="fill:#000000;stroke:#000000;stroke-width:0.26458332" />
        <circle
           r="3.2072344"
           cy="103.61907"
           cx="104.99463"
           id="circle341"
           style="fill:#000000;stroke:#000000;stroke-width:0.26458332" />
      </g>
      <g
         id="g349"
         transform="rotate(180,99.801336,106.79261)">
        <path
           style="fill:#000000;stroke:#000000;stroke-width:0.26458332"
           d="m 107.97152,70.478332 c 0,20.000998 -8.285355,36.215028 -8.285355,36.215028 0,0 -8.285356,-16.214023 -8.285356,-36.215028 0,-20.001003 8.285356,-36.215019 8.285356,-36.215019 0,0 8.285355,16.214022 8.285355,36.215019 z"
           id="path345"
           inkscape:connector-curvature="0"
           sodipodi:nodetypes="scscs" />
        <circle
           style="fill:#000000;stroke:#000000;stroke-width:0.26458332"
           id="circle347"
           cx="104.99463"
           cy="103.61907"
           r="3.2072344" />
      </g>
    </g>
  </g>
  <g
     inkscape:groupmode="layer"
     id="layer5"
     inkscape:label="Layer 4">
    <path
       style="fill:#000000;stroke:#000000;stroke-width:0.26458332"
       d="m -6.4735621,-61.942977 c 0,24.945902 -8.0180879,45.168549 -8.0180879,45.168549 0,0 -8.01808,-20.222649 -8.01808,-45.168549 0,-24.945899 8.01808,-45.168553 8.01808,-45.168553 0,0 8.0180879,20.222652 8.0180879,45.168553 z"
       id="path418"
       inkscape:connector-curvature="0"
       sodipodi:nodetypes="scscs"
       inkscape:tile-cx="-20.312482"
       inkscape:tile-cy="-61.942978"
       inkscape:tile-w="16.300753"
       inkscape:tile-h="91.054952"
       inkscape:tile-x0="-28.462858"
       inkscape:tile-y0="-107.47045" />
    <path
       style="fill:#000000;stroke:#000000;stroke-width:0.26458332"
       d="m -1.5119047,-22.843451 a 3.7797618,3.7797618 0 0 1 -3.7797618,3.779762 3.7797618,3.7797618 0 0 1 -3.7797614,-3.779762 3.7797618,3.7797618 0 0 1 3.7797614,-3.779762 3.7797618,3.7797618 0 0 1 3.7797618,3.779762 z"
       id="path576"
       inkscape:connector-curvature="0" />
  </g>
</svg>
