<?xml version="1.0" encoding="UTF-8" standalone="no"?>
<!-- Created with Inkscape (http://www.inkscape.org/) -->

<svg
   xmlns:dc="http://purl.org/dc/elements/1.1/"
   xmlns:cc="http://creativecommons.org/ns#"
   xmlns:rdf="http://www.w3.org/1999/02/22-rdf-syntax-ns#"
   xmlns:svg="http://www.w3.org/2000/svg"
   xmlns="http://www.w3.org/2000/svg"
   xmlns:sodipodi="http://sodipodi.sourceforge.net/DTD/sodipodi-0.dtd"
   xmlns:inkscape="http://www.inkscape.org/namespaces/inkscape"
   width="4394.144"
   height="4623.7119"
   id="svg2"
   version="1.1"
   inkscape:version="0.48.0 r9654"
   sodipodi:docname="New document 1">
  <defs
     id="defs4">
    <inkscape:path-effect
       pattern-nodetypes="ccccc"
       fuse_tolerance="0"
       vertical_pattern="false"
       prop_units="false"
       tang_offset="0"
       normal_offset="0"
       spacing="0"
       scale_y_rel="false"
       prop_scale="1"
       copytype="single_stretched"
       pattern="m -222.39267,184.4262 -39.78008,-45.72162 24.90267,15.12993 -24.58248,-89.323994 z"
       is_visible="true"
       id="path-effect3166"
       effect="skeletal" />
    <inkscape:path-effect
       is_visible="true"
       id="path-effect3164"
       effect="spiro" />
    <inkscape:path-effect
       pattern-nodetypes="ccccccccccc"
       fuse_tolerance="0"
       vertical_pattern="false"
       prop_units="false"
       tang_offset="0"
       normal_offset="0"
       spacing="0"
       scale_y_rel="false"
       prop_scale="1"
       copytype="single_stretched"
       pattern="M 419.5979,433.5549 263.7733,375.0466 127.2362,470.242 134.7284,303.9639 2,203.5264 1133.8836,764.98349 216.9614,2 308.6359,140.9256 475.0511,144.1655 371.254,274.2834 z"
       is_visible="true"
       id="path-effect3140"
       effect="skeletal" />
    <inkscape:path-effect
       is_visible="true"
       id="path-effect3138"
       effect="spiro" />
    <inkscape:path-effect
       pattern-nodetypes="ccccccccccc"
       fuse_tolerance="0"
       vertical_pattern="false"
       prop_units="false"
       tang_offset="0"
       normal_offset="0"
       spacing="0"
       scale_y_rel="false"
       prop_scale="1"
       copytype="single_stretched"
       pattern="M 568.0366,395.1538 416.0114,372.953 496.2458,503.9759 368.9084,418.0123 384.3483,570.8722 306.9195,438.1721 254.507,582.5933 242.3224,429.4395 132.4383,536.8176 187.9113,393.5441 42.3197,442.6115 154.4631,337.5954 2,318.6337 148.6026,272.6747 19.4652,189.4395 171.4905,211.6404 91.2561,80.6175 218.5935,166.581 203.1536,13.7211 280.5824,146.4212 332.9949,2 345.1795,155.1538 455.0635,47.7758 399.5905,191.0492 545.1822,141.9819 433.0387,246.998 585.5019,265.9596 438.8993,311.9187 z"
       is_visible="true"
       id="path-effect3114"
       effect="skeletal" />
    <inkscape:path-effect
       is_visible="true"
       id="path-effect3112"
       effect="spiro" />
    <inkscape:path-effect
       effect="skeletal"
       id="path-effect3088"
       is_visible="true"
       pattern="M 1647.7142,1219.1429 1187.0715,823.54603 1114.7802,990.92825 1879.64,-1172.0183 996.28571,864.85713 1089.0253,787.0715 938.78597,537.63739 l 208.66093,227.71696 -19.7327,-191.92578 72.0714,178.45397 26.577,-104.52509 46.5688,94.37511 334.7828,-71.16113 -287.0254,117.78563 253.0966,180.86268 -334.3752,-187.71697 z"
       copytype="single_stretched"
       prop_scale="1"
       scale_y_rel="false"
       spacing="0"
       normal_offset="0"
       tang_offset="0"
       prop_units="false"
       vertical_pattern="false"
       fuse_tolerance="0"
       pattern-nodetypes="ccccccccccccccccc" />
    <inkscape:path-effect
       effect="spiro"
       id="path-effect3086"
       is_visible="true" />
    <inkscape:path-effect
       effect="spiro"
       id="path-effect3082"
       is_visible="true" />
    <inkscape:path-effect
       effect="skeletal"
       id="path-effect3064"
       is_visible="true"
       pattern="M 274.46269,568.44509 59.887129,530.23907 -94.531429,558.49422 -3.1187314,504.79982 -203.71429,386.12195 30.176977,465.58795 -110.67191,279.14286 67.531179,420.56339 155.33982,484.30707 103.55118,478.1781 z"
       copytype="single_stretched"
       prop_scale="1"
       scale_y_rel="false"
       spacing="0"
       normal_offset="0"
       tang_offset="0"
       prop_units="false"
       vertical_pattern="false"
       fuse_tolerance="0"
       pattern-nodetypes="ccccccccccc" />
    <inkscape:path-effect
       effect="spiro"
       id="path-effect3048"
       is_visible="true" />
    <inkscape:path-effect
       effect="skeletal"
       id="path-effect3025"
       is_visible="true"
       pattern="m 879.14111,-364.31674 -118.57143,-4.28571 14.28572,211.42857 87.14286,-7.14286 -67.14286,-57.14286 251.4286,-91.42857 -237.14289,42.85714 135.71429,-68.57142 -165.71429,32.85714 37.14286,-31.42857 z"
       copytype="single_stretched"
       prop_scale="1"
       scale_y_rel="false"
       spacing="0"
       normal_offset="0"
       tang_offset="0"
       prop_units="false"
       vertical_pattern="false"
       fuse_tolerance="0"
       pattern-nodetypes="ccccccccccc" />
    <inkscape:path-effect
       effect="spiro"
       id="path-effect3023"
       is_visible="true" />
    <inkscape:path-effect
       effect="skeletal"
       id="path-effect3013"
       is_visible="true"
       pattern="M 11.616754,14.142136 C 36.334875,29.724748 29.32267,31.714864 12.626907,52.426407 L 49.395949,26.213203 z"
       copytype="single_stretched"
       prop_scale="1"
       scale_y_rel="false"
       spacing="0"
       normal_offset="0"
       tang_offset="0"
       prop_units="false"
       vertical_pattern="false"
       fuse_tolerance="0"
       pattern-nodetypes="cccc" />
    <inkscape:path-effect
       effect="spiro"
       id="path-effect3011"
       is_visible="true" />
    <inkscape:path-effect
       effect="skeletal"
       id="path-effect3007"
       is_visible="true"
       pattern="M 0,0 0,10 10,5 z"
       copytype="single_stretched"
       prop_scale="1"
       scale_y_rel="false"
       spacing="0"
       normal_offset="0"
       tang_offset="0"
       prop_units="false"
       vertical_pattern="false"
       fuse_tolerance="0" />
    <inkscape:path-effect
       effect="spiro"
       id="path-effect3005"
       is_visible="true" />
  </defs>
  <sodipodi:namedview
     id="base"
     pagecolor="#ffffff"
     bordercolor="#666666"
     borderopacity="1.0"
     inkscape:pageopacity="0.0"
     inkscape:pageshadow="2"
     inkscape:zoom="0.061871843"
     inkscape:cx="2096.5949"
     inkscape:cy="2570.8762"
     inkscape:document-units="px"
     inkscape:current-layer="layer1"
     showgrid="false"
     fit-margin-top="0"
     fit-margin-left="0"
     fit-margin-right="0"
     fit-margin-bottom="0"
     inkscape:window-width="1024"
     inkscape:window-height="720"
     inkscape:window-x="-3"
     inkscape:window-y="-3"
     inkscape:window-maximized="1" />
  <metadata
     id="metadata7">
    <rdf:RDF>
      <cc:Work
         rdf:about="">
        <dc:format>image/svg+xml</dc:format>
        <dc:type
           rdf:resource="http://purl.org/dc/dcmitype/StillImage" />
        <dc:title></dc:title>
      </cc:Work>
    </rdf:RDF>
  </metadata>
  <g
     inkscape:label="Layer 1"
     inkscape:groupmode="layer"
     id="layer1"
     transform="translate(667.67373,1274.0082)">
    <path
       style="fill:#000000;fill-rule:evenodd;stroke:none"
       d="m 1147.4562,-85.878363 c 13.4159,12.023053 27.9049,29.42228 45.8482,49.598483 19.5699,23.136735 43.8937,49.781069 76.1381,76.11536 32.303,27.240929 75.4134,48.749987 127.8453,58.453848 10e-5,3e-6 10e-5,6e-6 10e-5,9e-6 41.6359,6.807593 85.309,1.291918 126.9653,-17.215003 42.0536,-18.94069 76.6496,-51.912133 99.0583,-96.032419 22.3106,-44.971885 26.0701,-96.423545 9.5771,-147.345115 0,-2e-5 0,-5e-5 0,-7e-5 -8.9499,-25.65295 -22.9366,-48.49757 -41.3191,-67.66047 0,-2e-5 0,-4e-5 0,-6e-5 -18.2633,-19.40226 -41.295,-34.71564 -68.3156,-44.95534 0,-10e-6 -10e-5,-2e-5 -10e-5,-3e-5 -51.9806,-18.48644 -106.1716,-13.43105 -153.9094,14.49641 -47.1655,28.87824 -77.3643,74.30426 -85.6718,129.11909 65.4961,-46.88329 144.4638,-30.3133 175.0092,19.27177 6.5688,10.66025 11.0964,22.63123 13.4256,35.219039 -6.904,2.369698 -12.408,1.863352 -20.635,-0.938121 -5.2396,-2.41054 -8.5009,-4.525128 -10.6243,-7.278381 0,-2e-6 0,-3e-6 0,-5e-6 -2.1995,-2.470029 -3.5555,-5.131224 -4.7633,-8.815635 -1.0305,-7.030397 -1.1105,-8.438187 1.019,-11.331667 0,0 0,0 0,0 2.2221,-2.04135 0.9195,-1.01602 0.6352,-0.0996 -0.6813,1.34619 -5.4093,1.82271 -10.0929,1.84204 -10e-5,0 -10e-5,0 -10e-5,0 -6.8221,0.9965 -18.5766,-6.23624 -33.3978,-15.72559 -12.0304,-8.38575 -24.7394,-21.65094 -39.6711,-37.6765 11.9712,18.68387 21.888,34.80426 32.3109,47.05303 12.84,14.373544 24.7251,27.535388 36.7898,32.71746 8.9517,4.60842 20.265,7.561092 30.1418,6.427057 0,0 0,0 0,0 9.6272,-0.865227 20.9733,-5.438191 28.0196,-12.863337 7.0925,-6.98268 12.7023,-19.24592 12.0752,-30.45891 -0.01,-1.36358 -0.1144,-2.7681 -0.3175,-4.19632 0.7589,1.16441 1.45,2.36465 2.0611,3.58982 5.5076,10.0827 5.8858,25.333379 1.3381,38.409016 -4.5161,13.379899 -15.8047,26.138811 -29.7683,34.400747 -14.0898,8.397556 -32.3233,12.134364 -50.5212,11.013523 0,-10e-7 0,-2e-6 0,-3e-6 -23.5116,-1.170368 -47.9671,-12.111851 -70.5953,-27.091963 -22.6435,-15.173762 -43.3242,-35.450328 -64.384,-56.35422 -20.9781,-20.98861 -42.5726,-42.8351 -67.3379,-61.1931 -10e-5,-2e-5 -10e-5,-3e-5 -10e-5,-5e-5 -24.758,-18.44199 -53.3137,-32.89969 -83.6607,-37.63686 -33.0976,-5.07631 -66.9146,2.08271 -94.5059,18.27384 -27.601,16.19018 -49.00233,41.27694 -61.29431,69.44978 -12.31662,28.18548 -15.63001,59.634471 -10.81774,88.97202 4.79661,29.3709424 17.83953,56.95542 36.09195,79.442315 0,1.7e-5 0,3.3e-5 0,4.9e-5 15.1447,18.467929 33.7038,33.579034 54.0083,42.317637 20.1867,8.688237 42.377,11.876195 61.7359,7.821926 0,-4e-6 10e-5,-7e-6 10e-5,-1.1e-5 19.135,-3.955211 36.9198,-14.377942 46.6574,-28.240172 4.9197,-6.692 8.4079,-14.524687 10.1349,-22.388315 1.6204,-7.796428 1.7119,-15.61458 -0.062,-22.087235 -2.6899,-11.0809199 -10.7638,-21.7961976 -19.7061,-26.8179208 -8.7663,-5.2446022 -20.9768,-6.8639372 -29.6738,-4.2543312 8.7796,-1.881102 20.4749,0.527644 28.3109,5.9806949 8.0205,5.21942828 14.8992,15.6456821 16.7023,25.6239111 1.2725,5.818086 0.796,12.83754 -0.9703,19.747588 -1.8885,6.980416 -5.338,13.834369 -9.9205,19.5032 -9.0469,11.914582 -25.5008,20.496166 -42.5021,23.400074 0,10e-7 0,2e-6 0,4e-6 -17.2931,3.033203 -37.1424,-0.699729 -54.9642,-9.034839 -17.9941,-8.408801 -34.3275,-22.797935 -47.6445,-40.049885 0,-7e-6 0,-1.4e-5 0,-2.1e-5 -15.95065,-21.072917 -26.9569,-46.462169 -30.34775,-72.631826 -3.42642,-26.096486 0.34527,-53.747021 11.67239,-77.591903 11.24046,-23.80427 30.19546,-44.78678 53.46286,-57.51556 23.1613,-12.75992 51.4639,-17.98428 77.7884,-13.1796 0,0 0,1e-5 10e-5,1e-5 24.4087,4.01816 48.2346,17.31601 70.0457,34.07325 21.8021,16.92749 41.4707,38.24794 61.9215,59.933565 0,1.6e-5 0,3.3e-5 0,4.9e-5 20.3622,21.777384 41.7902,44.098639 67.0033,62.789276 0,1.5e-5 0,2.9e-5 0,4.3e-5 25.2193,18.816367 54.9661,33.1928052 87.0573,37.2408882 25.1525,3.0767118 51.0806,-0.9074488 73.6622,-12.1512939 21.8447,-10.8974093 39.9789,-28.7603163 50.4488,-50.5051923 -9.3242,22.336737 -26.7609,41.612477 -48.8188,54.01633917 -22.7871,12.78728983 -49.6834,18.43224183 -76.4648,16.43156183 -34.1109,-2.747037 -66.492,-16.21768729 -93.9166,-34.800191 0,-4e-6 0,-8e-6 0,-1.2e-5 -27.4109,-18.341348 -50.9209,-40.254484 -72.5799,-61.030889 -21.8407,-20.588074 -42.1737,-40.154024 -63.2734,-54.104824 -21.1211,-13.58525 -42.321,-23.52617 -61.1481,-24.15165 0,0 0,0 0,0 -19.928,-1.64054 -41.0223,4.87853 -56.4731,15.80442 -15.6919,10.85262 -27.735,28.01522 -33.6005,45.384248 -4.864,13.99658 -5.9469,29.7403 -3.9082,44.457262 -0.6262,-14.691977 1.8596,-29.780673 7.6671,-42.505371 7.0301,-15.776639 19.5199,-30.542629 34.1144,-38.829679 14.3153,-8.37229 33.0295,-12.50932 49.0399,-9.84954 15.3817,1.30746 33.1011,11.49251 51.671,24.74291 0,1e-5 0,2e-5 0,2e-5 18.5377,13.7811 36.752,33.551621 57.524,55.253195 20.4642,22.020378 43.8497,46.06255 72.8394,67.923136 29.0211,22.361798 65.4186,39.498149 106.953,45.535579 0,3e-6 0,5e-6 10e-5,8e-6 32.8022,4.314585 66.6973,-0.896029 97.5575,-15.79268 31.0551,-15.110248 56.3022,-40.4767052 71.3821,-72.63456 0,-2.2e-5 0,-4.4e-5 10e-5,-6.6e-5 15.033,-32.554426 16.768,-69.673072 4.3819,-104.150732 0,-3e-5 0,-5e-5 0,-7e-5 -6.5073,-17.32999 -16.5425,-32.74607 -29.357,-45.45687 -12.7503,-12.80205 -28.464,-22.73247 -46.2408,-28.90605 -14.2068,-4.72555 -28.7894,-6.6957 -43.127,-6.03727 14.3113,-1.71545 29.2484,-0.81017 44.2113,3.05885 18.7206,5.11066 35.9052,14.28734 50.3191,26.92004 14.4874,12.52111 26.4159,28.29365 34.7402,46.75302 0,0 0,0 0,0 15.8678,36.69856 17.1754,78.005282 2.3186,116.175094 -9.1389,23.0393455 -22.7499,43.720987 -40.0666,60.878628 -11.3768,10.344759 -24.107,19.16994 -37.9583,26.240139 -35.4524,17.926048 -74.2986,24.942779 -112.3379,20.705792 0,-10e-7 0,-2e-6 0,-3e-6 -48.0053,-6.208388 -89.797,-24.20284 -122.3846,-48.308982 -32.5375,-23.3233926 -58.4129,-48.00881 -79.8275,-69.468581 -19.5604,-18.710094 -35.9206,-34.847332 -50.8037,-45.23214 z"
       id="path3021"
       inkscape:path-effect="#path-effect3023;#path-effect3025"
       inkscape:original-d="m 1388.3846,-116.78108 c 0,0 4.0406,-116.16755 98.9949,-59.599 94.9544,56.56854 44.4467,67.68022 -74.7513,172.7360824 C 1293.4302,101.41187 1284.3388,-197.59329 1129.7855,-208.70496 975.23217,-219.81664 950.98851,-81.425738 983.31339,54.944852 c 32.32491,136.370588 244.45691,57.578688 230.31481,-39.39595 -14.1422,-96.97464 -95.9645,-75.76144 -95.9645,-75.76144"
       inkscape:connector-curvature="0"
       inkscape:export-filename="/home/thoth/tribal.png"
       inkscape:export-xdpi="90"
       inkscape:export-ydpi="90" />
    <path
       style="fill:#000000;stroke:#000000;stroke-width:1px;stroke-linecap:butt;stroke-linejoin:miter;stroke-opacity:1"
       d="m 544.75563,587.78926 c 113.75496,4.65019 217.18601,94.84009 234.98192,207.67035 13.76664,83.08883 -15.21098,171.14868 -73.97469,231.25819 -57.14255,61.2913 -129.64298,108.499 -207.94407,138.0824 -87.79647,30.3026 -192.29101,25.1524 -267.46324,-33.6493 -67.51931,-48.3676 -112.26419,-133.56023 -96.06179,-217.40471 7.54699,-57.797 38.94387,-108.75906 77.99196,-150.76946 16.26501,-20.80366 53.47802,-51.76823 54.26168,-69.94353 -10.61401,15.54223 22.485,62.46975 7.41391,26.94329 -10.12455,-23.24649 19.78291,-34.22161 9.44251,-5.4784 -13.42875,32.46743 -37.64796,58.57353 -56.24632,88.00256 38.5431,-34.59577 93.02967,-51.44916 121.1048,-96.88279 21.34824,-36.48466 -13.71062,-77.0497 -49.92402,-83.3212 -84.69655,-18.23383 -167.93413,53.13719 -180.7923,135.33178 -5.11282,15.7936 -1.86454,70.81687 -4.53712,28.29578 -4.90076,-91.27908 67.89829,-181.87707 161.12022,-186.86513 52.58093,-5.62666 113.42001,32.0335 112.71743,89.06253 -1.53081,57.16234 -52.53593,93.01796 -93.67328,124.45118 -43.88296,32.59689 -84.95907,76.29214 -92.09938,132.85616 19.91573,-58.14533 78.56095,-87.10898 132.98727,-105.10608 64.27125,-20.93637 127.1723,-65.20056 145.52986,-133.40685 27.20308,-94.41691 -36.12281,-195.45354 -123.60694,-231.38621 -16.65005,-6.80349 -38.8972,-13.89801 -8.92115,-5.14985 98.1596,27.46486 173.45625,129.42184 157.36233,232.42381 -10.95885,81.08234 -74.89543,142.98986 -145.18069,178.11556 -38.2159,20.68668 -89.30441,45.91679 -89.26704,95.9408 0.89361,65.27336 66.40864,107.77706 125.89181,113.69146 64.54749,8.4576 128.4323,-12.8582 185.91045,-40.4156 -51.42287,36.9407 -110.26935,67.5764 -174.40469,72.4701 91.78521,1.0679 177.1243,-44.0101 250.03811,-95.9245 53.43612,-40.43785 95.10381,-98.93691 104.01056,-166.52338 C 781.51935,749.91463 707.41762,635.88617 602.55558,600.97824 583.887,594.35686 564.43751,589.98088 544.75563,587.78926 z"
       id="path3046"
       inkscape:connector-curvature="0" />
    <path
       inkscape:connector-curvature="0"
       id="path3074"
       d="m -272.31916,587.78926 c -113.75496,4.65019 -217.18601,94.84009 -234.98192,207.67035 -13.76664,83.08883 15.21098,171.14868 73.97469,231.25819 57.14255,61.2913 129.64298,108.499 207.94407,138.0824 87.79647,30.3026 192.291006,25.1524 267.463236,-33.6493 C 109.60022,1082.7833 154.34512,997.59067 138.14272,913.74619 130.59572,855.94919 99.198816,804.98713 60.150716,762.97673 43.885716,742.17307 6.6727155,711.2085 5.8891155,693.0332 c 10.6140005,15.54223 -22.4849995,62.46975 -7.414,26.94329 10.1246,-23.24649 -19.7828995,-34.22161 -9.4424995,-5.4784 13.4287995,32.46743 37.648,58.57353 56.2464,88.00256 -38.5431005,-34.59577 -93.02972,-51.44916 -121.10485,-96.88279 -21.34824,-36.48466 13.71062,-77.0497 49.92405,-83.3212 84.6965,-18.23383 167.934104,53.13719 180.792304,135.33178 5.1128,15.7936 1.8645,70.81687 4.5371,28.29578 4.9008,-91.27908 -67.898304,-181.87707 -161.1202045,-186.86513 -52.5809595,-5.62666 -113.4200355,32.0335 -112.7174555,89.06253 1.53081,57.16234 52.535926,93.01796 93.673256,124.45118 43.883,32.59689 84.9591,76.29214 92.0994,132.85616 C 51.446916,887.28363 -7.1982845,858.31998 -61.624654,840.32288 -125.8959,819.38651 -188.79695,775.12232 -207.15451,706.91603 c -27.20308,-94.41691 36.12281,-195.45354 123.606936,-231.38621 16.65005,-6.80349 38.8972,-13.89801 8.92115,-5.14985 -98.159596,27.46486 -173.456246,129.42184 -157.362326,232.42381 10.95885,81.08234 74.89543,142.98986 145.180686,178.11556 38.2159,20.68668 89.3043795,45.91679 89.2670795,95.9408 -0.8936,65.27336 -66.4086795,107.77706 -125.8918455,113.69146 -64.54749,8.4576 -128.4323,-12.8582 -185.91045,-40.4156 51.42287,36.9407 110.26935,67.5764 174.40469,72.4701 -91.78521,1.0679 -177.1243,-44.0101 -250.03811,-95.9245 -53.43612,-40.43785 -95.10381,-98.93691 -104.01056,-166.52338 -20.09562,-110.24359 54.00611,-224.27205 158.86815,-259.17998 18.66858,-6.62138 38.11807,-10.99736 57.79995,-13.18898 z"
       style="fill:#000000;stroke:#000000;stroke-width:1px;stroke-linecap:butt;stroke-linejoin:miter;stroke-opacity:1" />
    <path
       inkscape:connector-curvature="0"
       id="path3076"
       d="m 544.75563,1061.5237 c 113.75496,-4.6502 217.18601,-94.84007 234.98192,-207.67033 13.76664,-83.08883 -15.21098,-171.14868 -73.97469,-231.25819 -57.14255,-61.2913 -129.64298,-108.499 -207.94407,-138.0824 -87.79647,-30.3026 -192.29101,-25.1524 -267.46324,33.6493 -67.51931,48.3676 -112.26419,133.56023 -96.06179,217.40471 7.54699,57.797 38.94387,108.75906 77.99196,150.76946 16.26501,20.80366 53.47802,51.76823 54.26168,69.94353 -10.61401,-15.54223 22.485,-62.46975 7.41391,-26.94329 -10.12455,23.24649 19.78291,34.22161 9.44251,5.4784 -13.42875,-32.46743 -37.64796,-58.57353 -56.24632,-88.00256 38.5431,34.59577 93.02967,51.44916 121.1048,96.88279 21.34824,36.48466 -13.71062,77.04968 -49.92402,83.32118 -84.69655,18.2338 -167.93413,-53.13717 -180.7923,-135.33176 -5.11282,-15.7936 -1.86454,-70.81687 -4.53712,-28.29578 -4.90076,91.27908 67.89829,181.87704 161.12022,186.86514 52.58093,5.6266 113.42001,-32.0335 112.71743,-89.06254 -1.53081,-57.16234 -52.53593,-93.01796 -93.67328,-124.45118 -43.88296,-32.59689 -84.95907,-76.29214 -92.09938,-132.85616 19.91573,58.14533 78.56095,87.10898 132.98727,105.10608 64.27125,20.93637 127.1723,65.20056 145.52986,133.40685 27.20308,94.41695 -36.12281,195.45355 -123.60694,231.38625 -16.65005,6.8034 -38.8972,13.898 -8.92115,5.1498 98.1596,-27.4649 173.45625,-129.4218 157.36233,-232.4238 -10.95885,-81.08234 -74.89543,-142.98986 -145.18069,-178.11556 -38.2159,-20.68668 -89.30441,-45.91679 -89.26704,-95.9408 0.89361,-65.27336 66.40864,-107.77706 125.89181,-113.69146 64.54749,-8.4576 128.4323,12.8582 185.91045,40.4156 -51.42287,-36.9407 -110.26935,-67.5764 -174.40469,-72.4701 91.78521,-1.0679 177.1243,44.0101 250.03811,95.9245 53.43612,40.43785 95.10381,98.93691 104.01056,166.52338 20.09562,110.24359 -54.00611,224.27204 -158.86815,259.17994 -18.66858,6.6214 -38.11807,10.9974 -57.79995,13.189 z"
       style="fill:#000000;stroke:#000000;stroke-width:1px;stroke-linecap:butt;stroke-linejoin:miter;stroke-opacity:1"
       inkscape:export-filename="/home/thoth/tribal1.png"
       inkscape:export-xdpi="90"
       inkscape:export-ydpi="90" />
    <path
       style="fill:#000000;stroke:#000000;stroke-width:1px;stroke-linecap:butt;stroke-linejoin:miter;stroke-opacity:1"
       d="m -272.31916,1061.5237 c -113.75496,-4.6502 -217.18601,-94.84007 -234.98192,-207.67033 -13.76664,-83.08883 15.21098,-171.14868 73.97469,-231.25819 57.14255,-61.2913 129.64298,-108.499 207.94407,-138.0824 87.79647,-30.3026 192.291006,-25.1524 267.463236,33.6493 67.519304,48.3676 112.264204,133.56023 96.061804,217.40471 -7.547,57.797 -38.943904,108.75906 -77.992004,150.76946 -16.265,20.80366 -53.4780005,51.76823 -54.2616005,69.94353 10.6140005,-15.54223 -22.4849995,-62.46975 -7.414,-26.94329 10.1246,23.24649 -19.7828995,34.22161 -9.4424995,5.4784 13.4287995,-32.46743 37.648,-58.57353 56.2464,-88.00256 -38.5431005,34.59577 -93.02972,51.44916 -121.10485,96.88279 -21.34824,36.48466 13.71062,77.04968 49.92405,83.32118 84.6965,18.2338 167.934104,-53.13717 180.792304,-135.33176 5.1128,-15.7936 1.8645,-70.81687 4.5371,-28.29578 4.9008,91.27908 -67.898304,181.87704 -161.1202045,186.86514 -52.5809595,5.6266 -113.4200355,-32.0335 -112.7174555,-89.06254 1.53081,-57.16234 52.535926,-93.01796 93.673256,-124.45118 43.883,-32.59689 84.9591,-76.29214 92.0994,-132.85616 -19.9157,58.14533 -78.5609005,87.10898 -132.98727,105.10608 -64.271246,20.93637 -127.172296,65.20056 -145.529856,133.40685 -27.20308,94.41695 36.12281,195.45355 123.606936,231.38625 16.65005,6.8034 38.8972,13.898 8.92115,5.1498 -98.159596,-27.4649 -173.456246,-129.4218 -157.362326,-232.4238 10.95885,-81.08234 74.89543,-142.98986 145.180686,-178.11556 38.2159,-20.68668 89.3043795,-45.91679 89.2670795,-95.9408 -0.8936,-65.27336 -66.4086795,-107.77706 -125.8918455,-113.69146 -64.54749,-8.4576 -128.4323,12.8582 -185.91045,40.4156 51.42287,-36.9407 110.26935,-67.5764 174.40469,-72.4701 -91.78521,-1.0679 -177.1243,44.0101 -250.03811,95.9245 -53.43612,40.43785 -95.10381,98.93691 -104.01056,166.52338 -20.09562,110.24359 54.00611,224.27204 158.86815,259.17994 18.66858,6.6214 38.11807,10.9974 57.79995,13.189 z"
       id="path3078"
       inkscape:connector-curvature="0"
       inkscape:export-filename="/home/thoth/tribal1.png"
       inkscape:export-xdpi="90"
       inkscape:export-ydpi="90" />
    <path
       style="fill:#000000;stroke:#000000;stroke-width:1px;stroke-linecap:butt;stroke-linejoin:miter;stroke-opacity:1"
       d="m 3726.0686,2639.8581 c -72.2647,90.1184 -155.0232,177.1127 -248.0043,260.0581 -147.1755,132.982 -329.2968,245.4472 -542.8186,332.5547 -213.6624,86.5783 -452.4773,125.7192 -708.9132,114.9884 -2e-4,0 -5e-4,0 -7e-4,0 -259.0232,-11.3297 -514.8808,-92.3032 -757.3046,-240.1438 -2e-4,-1e-4 -5e-4,-3e-4 -7e-4,-4e-4 C 1302.0889,2999.2268 1166.7999,2873.4932 1063.584,2733.967 960.35652,2596.02 882.59531,2449.8086 830.1912,2298.0455 735.25124,1999.1991 714.58872,1725.841 756.01482,1488.2828 783.113,1254.1039 873.87147,1006.2887 1029.9896,759.3387 c 82.439,-124.51761 184.8547,-237.88187 305.7138,-338.17956 2e-4,-1.4e-4 3e-4,-2.7e-4 5e-4,-4.1e-4 121.0334,-101.51549 265.0309,-184.57614 429.4588,-246.82891 187.4939,-62.36907 345.9608,-89.572575 472.8981,-88.155195 125.2468,-1.266896 217.0525,5.438036 276.701,14.144645 55.9241,5.86001 80.1567,13.78016 73.9105,17.79707 0,0 0,1e-5 -1e-4,1e-5 -9.2878,1.41732 -46.4592,19.31848 -114.2162,47.17466 -55.3479,28.77655 -99.1526,61.25368 -133.8326,98.96287 -34.8103,36.92673 -61.8004,77.31577 -83.0589,122.56564 -37.953,90.3996 -46.4246,164.07328 -31.0671,237.56144 16.4686,71.18159 41.1986,117.78552 77.9908,153.42775 1e-4,3e-5 1e-4,5e-5 1e-4,8e-5 36.4024,33.83136 64.9898,49.07739 94.0098,53.30389 0,0 0,0 1e-4,1e-5 25.2552,6.5932 54.5945,4.61857 93.8697,1.37286 6.3904,-0.56159 12.7008,-1.46352 18.9746,-2.69006 33.8851,19.29454 77.2832,29.17273 137.5503,24.88932 38.4142,-4.50905 76.8977,-15.10752 116.5073,-34.13757 0,0 1e-4,-10e-6 1e-4,-10e-6 40.3297,-18.99318 79.817,-48.42283 119.6064,-91.18475 0,-10e-6 0,-2e-5 0,-3e-5 39.723,-44.68604 71.8508,-95.00911 95.421,-154.20304 2.9116,-7.06744 5.6557,-14.26437 8.2301,-21.59707 -2.8808,7.28647 -5.9292,14.42464 -9.1425,21.42107 -26.1238,58.59358 -60.6186,107.4437 -102.0999,149.94167 -41.5437,40.5949 -82.2536,67.23426 -123.058,83.16848 -40.0996,15.96601 -78.367,23.19165 -115.6946,24.31985 -69.4224,-1.21529 -112.7378,-22.35106 -142.3436,-53.56254 -28.1344,-31.53405 -30.4438,-61.32423 -19.0877,-87.86481 0,-3e-5 0,-6e-5 0,-10e-5 10.6764,-26.20898 34.0185,-49.89504 55.9191,-67.06635 21.6344,-18.39905 55.2514,-24.87107 83.0568,-24.54284 28.4225,-0.9598 59.4163,18.66456 78.4278,41.19585 10.5197,11.26006 17.1833,27.16677 19.8681,44.42944 0,2e-5 0,4e-5 0,6e-5 2.6472,16.91887 1.8069,35.93192 -2.5652,53.28951 0,2e-5 0,4e-5 0,6e-5 -5.4063,23.79855 -31.8245,46.12103 -70.1174,68.44515 -1e-4,2e-5 -1e-4,5e-5 -2e-4,7e-5 -39.5768,21.85936 -91.8138,38.39342 -150.8963,55.05516 -59.8703,16.0506 -126.6667,32.65641 -194.6163,55.35482 -67.7004,22.04679 -136.371,53.6577 -196.9941,96.54361 -1e-4,0 -2e-4,10e-5 -2e-4,10e-5 -53.2808,38.4527 -95.6328,84.6055 -127.9368,134.0154 -32.387,49.5037 -55.0325,102.0427 -69.015,154.5918 -27.8947,104.9273 -22.3303,208.6439 -0.6431,303.0711 23.2992,96.3139 64.7465,180.9736 121.2283,233.298 27.4491,25.8483 57.4749,45.1573 87.1283,55.9396 29.4513,10.2826 57.2353,13.1886 78.7648,6.5413 0,0 10e-5,0 10e-5,0 30.6455,-7.5222 60.5607,-26.9535 79.5879,-48.7554 0,0 0,0 1e-4,-10e-5 19.8395,-21.6158 35.3468,-51.4054 44.0562,-79.2978 8.4852,-27.5094 12.4293,-61.1489 14.7912,-93.6363 0,-10e-5 0,-10e-5 0,-2e-4 2.93,-33.8902 0.5695,-71.058 -3.7612,-107.8156 -9.577,-46.0196 -27.4384,-63.0508 -64.9486,-35.279 -16.5307,17.2509 -29.2762,42.1432 -37.1632,77.7251 -8.3239,37.3562 -4.1158,83.6759 15.3952,143.1757 10e-5,10e-5 2e-4,3e-4 2e-4,4e-4 35.5752,87.0785 81.2879,158.0332 153.6127,208.4534 10e-5,10e-5 3e-4,2e-4 4e-4,3e-4 70.3004,48.4299 139.0196,82.2003 214.3352,91.1361 2e-4,0 3e-4,0 4e-4,0 76.798,7.225 142.7551,8.7573 197.6241,-5.5258 53.1398,-10.8083 101.7925,-25.3928 144.4761,-49.971 21.6756,-9.6934 48.89,-38.0704 83.7446,-86.6107 37.076,-50.3982 66.404,-127.394 89.331,-234.4865 23.3254,-108.6325 13.9317,-236.201 -30.1142,-387.7069 -2e-4,-5e-4 -4e-4,-0 -5e-4,-0 -46.2513,-155.8334 -147.6329,-298.59194 -311.1275,-432.04409 -6e-4,-4.6e-4 -0,-9.3e-4 -0,-0.001 -148.1885,-110.87329 -314.2574,-175.42309 -503.7576,-191.1165 -189.5646,-13.73991 -368.9,22.51653 -541.319,113.89335 -171.3973,93.09554 -306.2383,223.74594 -404.5543,398.05274 -96.4895,175.2248 -140.5944,362.6503 -129.0548,567.4343 -13.1093,-204.6216 29.3352,-392.8016 124.8247,-569.5603 97.3235,-175.8369 231.7757,-308.66522 403.9466,-404.06599 173.2009,-93.66782 354.2394,-132.18945 546.6184,-119.94935 192.3147,14.21848 361.8807,78.05349 514.0109,189.69774 167.9007,134.44717 273.5625,279.2877 323.0291,438.6127 47.2111,154.8977 59.1661,286.3931 37.1742,399.2411 -21.5909,111.259 -50.0473,192.3751 -86.9241,246.4269 -34.5646,52.1446 -61.6095,83.8818 -83.1939,96.3724 -1e-4,0 -2e-4,10e-5 -3e-4,10e-5 -42.3583,30.6659 -92.2882,51.9559 -149.0056,69.6964 -58.5411,21.365 -130.8736,26.4919 -217.7025,24.6673 -85.2544,-3.6372 -166.2417,-34.82 -251.3814,-84.9892 -87.3565,-52.3491 -148.0109,-130.1865 -197.4459,-230.9917 -28.0671,-68.7588 -38.9696,-124.8489 -34.8554,-172.3838 0,-2e-4 0,-3e-4 0,-5e-4 3.5857,-45.5479 13.4385,-80.5666 28.8565,-107.9444 36.0031,-46.9296 53.9734,-46.369 65.7659,-11.7454 5.4342,26.2344 11.2945,51.9781 14.8816,73.5507 4.2601,19.9304 10.9766,41.2334 18.1119,56.9727 6.8949,16.1834 11.1965,37.5344 16.0877,55.0633 0,0 0,0 0,0 6.0559,17.7967 3.3624,40.2368 2.093,59.5259 -1.3328,15.6452 -11.6185,23.8386 -26.8593,26.9943 -15.4502,2.3677 -33.5161,-2.3543 -51.6815,-12.0762 -10e-5,0 -10e-5,0 -2e-4,0 -39.5994,-20.8353 -70.5671,-75.8409 -91.9563,-145.8042 -17.2068,-68.3661 -26.9615,-140.3108 -14.1421,-206.8458 5.519,-33.1405 16.1658,-66.8802 32.6491,-98.3513 16.3211,-31.0852 37.7796,-60.8866 64.7728,-85.257 30.6022,-28.88 75.3144,-51.4953 126.0416,-70.241 51.5633,-18.6807 109.5258,-31.7461 169.114,-44.795 1e-4,-10e-5 3e-4,-10e-5 4e-4,-10e-5 59.7986,-12.8985 121.3046,-26.2724 179.6985,-45.647 10e-5,0 2e-4,-10e-5 4e-4,-10e-5 57.7838,-19.1443 112.6018,-44.725 156.228,-78.93519 35.5645,-27.65436 64.4861,-60.93061 86.4603,-96.3932 21.9943,-35.57115 36.9757,-73.51362 44.7537,-110.80467 16.0895,-74.54861 4.5632,-150.18033 -22.8869,-209.379 0,-8e-5 0,-1.7e-4 -1e-4,-2.5e-4 -27.2248,-59.67442 -73.1611,-107.9573 -121.9961,-138.51972 -48.9523,-31.09785 -106.4846,-46.93557 -159.3194,-49.86838 -49.8701,-1.69059 -94.6429,8.25821 -123.052,29.58716 -27.6406,21.16066 -45.1569,47.65609 -40.2975,71.61746 0,3e-5 0,7e-5 0,10e-5 2.9041,11.69995 8.6431,22.40131 18.2769,29.76757 0,2e-5 0,4e-5 1e-4,6e-5 10.0518,7.35767 22.9132,10.29542 39.7329,5.92405 0,-2e-5 1e-4,-3e-5 1e-4,-5e-5 16.7724,-5.43562 33.0745,-13.82977 47.9516,-28.41334 15.4765,-14.92025 27.5596,-36.22044 34.98,-67.67843 10.6888,-46.70637 7.8979,-95.75609 -20.843,-155.53416 -30.6427,-59.80974 -77.1301,-108.19863 -156.7383,-144.70394 -10e-5,-6e-5 -3e-4,-1.3e-4 -5e-4,-1.9e-4 -41.4539,-17.33418 -84.9074,-27.99018 -132.3971,-30.48256 -48.0425,-3.082977 -99.6056,4.24713 -157.0062,23.79713 -2e-4,8e-5 -4e-4,1.6e-4 -7e-4,2.4e-4 -58.0834,21.40364 -110.3787,51.45822 -157.4459,93.26093 -2e-4,1.6e-4 -4e-4,3.2e-4 -6e-4,4.8e-4 -48.2756,41.56658 -89.0335,96.36332 -122.8113,167.95584 -28.9275,63.73461 -45.487,133.53974 -48.6633,211.97481 -0.9175,16.28533 -0.9268,32.87834 -0.013,49.80748 -1.8928,-16.78367 -2.8739,-33.31171 -2.9465,-49.61074 -1.7517,-78.49421 9.832,-150.25536 34.7514,-217.56495 29.1338,-75.68828 66.3409,-136.51983 113.1252,-185.07652 45.516,-48.813 98.1949,-86.91181 159.4146,-116.510685 60.4908,-27.607914 117.0707,-42.858143 172.0762,-46.434141 54.4049,-4.233601 106.6657,0.726178 158.8051,14.357777 10e-5,5e-6 10e-5,1.1e-5 10e-5,1.6e-5 100.4594,29.444814 171.8876,76.920383 227.7312,147.350333 25.192,33.0888 44.2686,65.44172 57.9614,98.12533 -21.7584,-28.57086 -47.7788,-54.64147 -77.8321,-79.61175 -66.106,-53.1582 -138.6315,-75.98438 -224.501,-82.5772 -44.6196,-2.21951 -86.0979,3.28333 -126.4332,15.38822 -40.8609,11.52707 -80.0699,31.80408 -119.9974,59.60097 -40.5122,29.44428 -71.4826,63.15009 -95.6823,101.82758 -25.2228,38.47481 -41.7246,83.15393 -52.6552,134.94351 -9.2733,46.20683 -8.8828,92.65159 -0.5588,141.14238 7.2686,50.07751 28.9741,101.31655 62.9808,156.56084 1e-4,4e-5 1e-4,8e-5 1e-4,1.2e-4 34.0492,53.18749 81.7694,95.53911 143.2194,131.34916 62.747,35.95831 132.4467,51.31844 211.9906,50.5235 0,0 1e-4,0 2e-4,-10e-6 61.4052,-2.73248 114.5703,-16.34472 161.8162,-40.55885 47.6561,-23.20621 89.0331,-56.89389 126.4566,-100.82858 10e-5,-4e-5 10e-5,-9e-5 2e-4,-1.3e-4 36.2026,-45.09893 59.4952,-90.99578 71.6254,-139.24306 13.1109,-47.90163 14.9153,-97.81747 7.1314,-151.33237 6.3918,53.63198 3.1495,103.0423 -11.0842,149.93924 -13.2608,47.23983 -37.3775,91.62953 -73.7392,134.85175 -37.5637,42.07617 -78.5472,73.69267 -125.1292,94.96695 -46.1812,22.25918 -97.6107,34.05075 -156.469,35.45146 0,0 -1e-4,0 -1e-4,0 -76.1972,-0.9309 -141.8392,-17.21301 -200.2302,-52.52938 0,-2e-5 0,-4e-5 -10e-5,-6e-5 -57.1442,-35.17391 -100.5338,-75.87564 -130.8395,-126.05744 -30.2721,-52.14298 -48.7731,-99.61309 -53.9412,-145.33953 -6.1559,-44.21861 -5.1105,-85.8611 4.4723,-126.84336 11.2785,-45.84317 27.0885,-84.45112 50.2047,-117.11148 0,-3e-5 10e-5,-6e-5 10e-5,-9e-5 22.1655,-32.8431 49.831,-60.8754 85.4504,-85.14949 35.0835,-22.76141 68.689,-38.77236 103.179,-47.23842 34.0053,-8.99052 68.4286,-12.39165 105.2741,-9.45687 70.7108,7.80278 127.7229,27.72342 179.4456,71.77179 0,2e-5 10e-5,4e-5 10e-5,6e-5 49.7821,44.01521 83.7267,89.53573 101.7334,149.30935 11.5363,40.19393 17.4819,76.15166 15.7572,110.53866 -0.9394,33.99305 -7.0102,66.65894 -20.0523,100.1848 0,2e-5 0,5e-5 0,7e-5 -13.1228,32.02458 -27.0796,58.79263 -44.4525,80.84284 -0.208,0.27441 -0.4163,0.54834 -0.6249,0.82181 -0.1538,-0.6853 -0.3095,-1.36972 -0.467,-2.05325 0,-10e-6 0,-10e-6 0,-2e-5 -12.0061,-54.93319 -37.4409,-105.81098 -70.0788,-147.19748 0,0 0,0 0,-10e-6 -9.0194,-11.7335 -18.9615,-22.34671 -29.6399,-31.82992 1.4257,5.17771 2.5159,10.62537 3.2084,16.3797 2.4338,19.75643 4.3257,38.77526 2.5094,56.63705 -1.2925,17.89484 -4.9288,35.97597 -13.5024,53.7736 0,10e-6 0,10e-6 0,10e-6 -15.3318,31.0871 -30.8579,62.00802 -57.4906,82.53223 -7.1147,5.6993 -14.1803,11.45277 -21.2659,17.01061 -9.0302,-29.39289 -4.0587,-57.19281 9.7107,-81.86484 3.5243,-6.39085 7.6185,-12.58834 12.1835,-18.54578 -8.0802,15.50253 -22.2611,25.41137 -46.0117,23.63313 -19.9681,-2.4501 -39.3722,-10.25251 -58.0148,-28.50305 -1.5747,-10.42929 -2.6788,-21.95087 -3.5734,-34.93479 -1.8827,-42.27424 10.7909,-78.87248 37.8011,-126.6655 0,-2e-5 1e-4,-5e-5 1e-4,-8e-5 15.2852,-23.9295 32.8386,-43.63983 54.1063,-61.07939 21.1745,-18.05176 47.0535,-32.46339 79.3399,-45.41099 39.5033,-10.29389 52.8118,-15.21724 44.4974,-9.70909 -10.7122,3.67251 -44.9878,2.90231 -101.9972,3.50449 0,0 -10e-5,0 -10e-5,0 -59.6769,-1.43961 -142.4337,-1.4049 -247.5036,5.94852 -106.0726,5.40442 -233.1661,32.68376 -376.8844,86.978 -126.0794,52.82444 -235.4597,122.05388 -326.5994,204.7279 -91.0569,81.90622 -166.9386,173.64915 -226.8708,272.9924 -114.0731,197.25751 -174.2737,395.68761 -186.8454,582.65511 -21.5726,189.841 4.0452,400.2491 84.5954,617.8992 43.3073,110.2847 104.5022,214.9322 182.8052,311.4405 78.2312,97.3997 177.5696,183.3387 296.3811,254.4512 172.3364,97.8319 354.0118,147.1483 534.7903,148.7511 179.2992,1.2599 345.8185,-33.7583 493.4983,-100.4011 1.8409,-0.8346 3.6782,-1.6722 5.5121,-2.5129 -1.8258,0.8592 -3.6552,1.7155 -5.4882,2.5688 -147.0482,68.1436 -313.5312,104.9276 -493.6614,105.2886 -10e-5,0 -10e-5,0 -2e-4,0 -181.6206,0.015 -364.9267,-47.9148 -539.6883,-145.2535 -120.4829,-70.8199 -221.6531,-156.7862 -301.6531,-254.6233 -80.0739,-96.9219 -143.0553,-202.322 -188.0006,-313.7375 -10e-5,-10e-5 -10e-5,-2e-4 -10e-5,-3e-4 -83.6727,-219.8447 -112.1562,-433.2218 -92.3712,-626.25 10.5181,-190.1185 69.6918,-392.9356 184.6037,-596.16094 60.4764,-102.3566 137.4884,-197.20278 230.4019,-282.24249 93.0094,-85.84808 205.1317,-158.10889 335.0087,-213.70987 10e-5,-4e-5 2e-4,-8e-5 3e-4,-1.3e-4 148.0563,-57.14257 278.8496,-86.60273 387.6343,-93.26108 107.6859,-8.73161 191.9751,-10.07265 251.7221,-9.84429 0,0 0,0 10e-5,0 56.9086,-1.94391 89.613,-2.41549 96.9063,-7.20243 4.7754,-6.73969 -13.8087,-1.89483 -60.6697,9.74465 -38.291,14.38111 -69.7651,31.03628 -95.993,52.26061 -15.2151,11.88351 -29.0366,24.79956 -41.7208,39.14359 10.0174,-16.41701 21.552,-31.89501 34.9901,-46.71806 23.1552,-26.31462 53.0938,-49.18442 92.1379,-70.22765 47.781,-19.59106 69.288,-32.76452 67.4747,-33.18911 -4.4609,-2.58931 -34.4513,-9.44638 -90.9088,-14.62778 -59.5688,-7.56071 -146.0367,-13.43825 -260.4115,-11.6794 -1e-4,0 -1e-4,0 -2e-4,0 -115.6857,-0.49199 -257.7205,23.93466 -423.3468,79.63558 -145.2752,55.17353 -272.8658,129.18898 -380.3718,219.61155 -107.3827,89.42448 -198.4721,190.7527 -271.8371,302.02793 -139.3955,220.78482 -220.10513,444.58242 -244.43995,657.14252 -10e-6,10e-5 -2e-5,2e-4 -3e-5,3e-4 -36.33849,215.7046 -17.51801,461.822 68.05175,727.635 3e-5,1e-4 7e-5,2e-4 10e-5,3e-4 46.91263,134.8754 116.21193,264.6537 207.88763,386.6504 10e-5,10e-5 2e-4,2e-4 2e-4,3e-4 91.6449,123.2897 211.2018,234.1818 358.0835,328.889 136.1339,82.9138 277.5392,141.8231 421.5447,176.1305 -144.1689,-33.5185 -285.9864,-91.692 -422.7824,-174.0565 -147.5983,-94.1228 -268.1102,-204.6323 -360.7756,-327.811 C 1108.69,2501.5622 1038.2721,2371.6621 990.27245,2236.3917 902.60072,1969.82 881.66763,1722.2019 916.51878,1504.6856 c 22.70979,-214.3508 102.37142,-440.8069 241.94572,-665.38492 0,-1.1e-4 10e-5,-2.2e-4 2e-4,-3.3e-4 73.5291,-113.18951 165.1638,-216.53265 273.5815,-308.02646 108.5495,-92.51668 237.7638,-168.57417 385.3845,-225.65082 168.3064,-57.6695 312.6872,-83.66661 430.1141,-84.14607 116.0537,-2.81234 203.5331,2.05684 263.1527,8.67228 56.396,4.15035 85.3569,10.04137 87.5285,11.75083 -0.556,-0.53182 -25.619,12.45395 -78.4101,32.83597 -43.1329,21.91502 -76.9174,46.21701 -103.5733,74.6164 -26.7656,27.70778 -47.5404,57.95688 -64.2351,92.29847 0,4e-5 0,8e-5 0,1.1e-4 -29.3756,68.6008 -36.6269,121.83371 -25.7763,176.33079 0,3e-5 0,6e-5 0,9e-5 11.8357,52.45124 28.019,84.54161 53.4795,109.2023 9.9703,9.14827 18.6062,16.04772 26.4536,21.11353 -9.3357,-3.57761 -19.7352,-9.26821 -31.6934,-17.58713 -30.4703,-22.5853 -52.9453,-54.98503 -70.4172,-111.30577 -16.4585,-58.42461 -13.7388,-118.56581 14.979,-196.89832 0,-5e-5 10e-5,-1e-4 10e-5,-1.6e-4 16.4608,-39.21102 37.9209,-74.6494 66.5969,-107.60433 28.5597,-33.68152 65.5387,-63.24137 113.498,-90.08289 58.7034,-25.99503 89.3234,-43.77269 94.1901,-46.51225 1.976,-5.18984 -24.2566,-14.44047 -80.3163,-21.75899 -59.5671,-9.99951 -149.4347,-18.11703 -271.2947,-18.3574 -10e-5,0 -2e-4,0 -4e-4,-1e-5 -123.4266,-2.7674 -277.056,21.89259 -458.762,80.80396 -2e-4,7e-5 -4e-4,1.3e-4 -5e-4,1.9e-4 -159.3613,58.85672 -299.5856,138.15101 -417.9419,235.65058 -118.199,96.33668 -218.8562,205.72174 -300.2873,326.30617 -154.44253,239.16288 -245.89284,481.04058 -275.14659,710.76038 -43.18295,233.0484 -25.78199,501.8989 65.27603,796.8389 6e-5,1e-4 1.2e-4,3e-4 1.8e-4,5e-4 50.34204,149.7559 125.744,294.3999 226.49178,431.1774 100.7381,138.3178 233.294,263.3601 397.4841,371.1772 238.4321,147.5871 491.1572,229.6533 747.9007,242.7101 3e-4,0 5e-4,0 7e-4,0 254.1879,12.4653 491.847,-24.5468 705.153,-109.0434 2e-4,-1e-4 3e-4,-1e-4 5e-4,-2e-4 213.1625,-85.0264 395.7682,-195.6225 543.8957,-327.0884 93.5904,-81.9842 177.1348,-168.1675 250.2978,-257.6258 z"
       id="path3084"
       inkscape:connector-curvature="0"
       inkscape:path-effect="#path-effect3086;#path-effect3088"
       inkscape:original-d="m 2323.6464,532.826 c 0,0 86.1704,-182.92338 165.6651,-173.74623 105.5567,12.18582 189.658,172.26846 161.6244,274.76149 C 2616.4222,760.0262 2436.747,843.87246 2307.484,823.74994 2175.6837,803.23243 2048.7905,665.24242 2032.7225,532.826 c -21.07,-173.63801 104.7888,-373.30329 258.5991,-456.588949 150.7148,-81.6095002 393.9332,-90.80364 513.1575,32.324889 213.7176,220.71633 230.0053,689.52754 28.2842,921.25916 -153.4458,176.2742 -497.3869,-46.17128 -697.0647,75.2661 -167.7629,102.0278 -307.2377,295.4275 -325.5461,490.924 -18.5768,198.3624 49.2249,471.7071 232.087,550.7906 250.0905,108.1581 601.7841,-67.3951 766.2802,-284.615 100.3432,-132.5049 157.8907,-379.421 40.4061,-496.9951 -162.1073,-162.2307 -529.5973,-112.6881 -685.8044,55.2313 -77.5066,83.318 -101.4515,284.6998 -2.7731,341.3721 76.9632,44.2009 228.8791,-136.0434 228.8791,-136.0434"
       sodipodi:nodetypes="caaaaaaaaaaaaaac" />
    <path
       inkscape:connector-curvature="0"
       inkscape:original-d="m 405.52746,-779.63822 c 0,0 4.0406,-116.16755 98.9949,-59.599 94.9544,56.56854 44.4467,67.68022 -74.7513,172.73608 -119.198,105.05587 -128.2894,-193.94929 -282.8427,-205.06096 C -7.6249718,-882.67378 -31.868632,-744.28288 0.45624818,-607.91229 32.781158,-471.5417 244.91316,-550.3336 230.77106,-647.30824 c -14.1422,-96.97464 -95.9645,-75.76144 -95.9645,-75.76144"
       inkscape:path-effect="#path-effect3112;#path-effect3114"
       id="path3110"
       d="m 225.50103,-808.2943 c 12.66363,6.37523 24.70696,14.20895 35.9783,23.43067 38.63382,32.42713 61.70545,76.48656 66.80485,125.66736 2.54786,29.07377 -1.23474,56.71334 -10.56873,81.75575 -10e-6,10e-6 -10e-6,2e-5 -2e-5,4e-5 -9.11303,25.02222 -23.17582,47.63081 -41.5035,66.90087 -36.83981,37.19928 -82.65439,57.70271 -130.15846,60.95497 -46.875364,2.96782 -90.572626,-8.0067 -127.165927,-29.65458 -36.213533,-21.48622 -64.736781,-49.95814 -85.034307,-82.03158 -3.196396,-4.91418 -6.226097,-9.92527 -9.085561,-15.02472 0.962311,6.25463 2.169289,12.54179 3.629949,18.84524 9.035171,41.08517 29.826837,83.47471 67.0401714,122.09378 5.3e-6,10e-6 1.05e-5,10e-6 1.57e-5,2e-5 37.8161789,38.87423 91.2633849,68.32609 160.5865989,78.08032 43.36707,5.63368 89.1398,1.36069 135.00506,-15.31897 -42.95795,21.55543 -87.98623,32.04206 -133.17443,32.26647 -72.16766,-0.26864 -134.159627,-20.69289 -183.533996,-55.51098 -48.571782,-34.47657 -83.255034,-75.79996 -105.364664,-119.98447 -27.73968,-52.93321 -40.32792,-111.18427 -38.21233,-169.30063 1.05931,-27.29875 5.83563,-53.78567 13.91282,-78.9271 -54.41749,15.70054 -107.94965,44.14582 -155.71072,85.02582 12.72125,-83.2536 49.37341,-156.21885 100.67311,-214.25678 1e-5,0 2e-5,-1e-5 2e-5,-2e-5 53.4267,-60.00598 121.597618,-95.52562 191.203154,-108.74378 16.2096187,-3.0047 32.193294,-4.5169 47.820372,-4.6815 39.768561,-38.9285 95.172904,-69.2288 165.337004,-80.1469 64.07265,-7.2748 128.96153,-4.127 185.65474,7.8318 -5.18937,32.0076 -13.3632,62.9507 -23.74212,92.65653 -7.93231,22.47412 -17.01995,44.06087 -27.02591,64.9402 31.49614,17.21985 58.54495,34.21961 80.7543,46.795 27.39785,14.16699 47.97377,22.4001 60.70233,17.53833 0,0 10e-6,0 10e-6,0 12.60975,-6.5915 13.00623,-16.30619 -6.82981,-33.48519 -12.32847,-8.52135 -27.46414,-13.79325 -47.21045,-14.38282 22.30318,10.05204 35.84639,25.93823 42.82865,43.49895 10.66895,32.80404 -8.50698,55.05246 -38.96483,68.291 0,0 0,0 -1e-5,0 -4.59643,1.84137 -9.39373,3.35992 -14.3653,4.59851 2.59186,1.50578 5.13218,2.8402 7.62665,3.98615 16.50464,6.69799 28.87404,10.37981 33.29294,5.58971 0,0 0,0 0,0 2.7231,-2.88723 4.02266,-5.71438 -0.38266,-7.58221 -4.88073,-1.35224 -9.38968,-0.77547 -17.11101,6.41356 0,0 0,0 0,10e-6 -7.60251,8.27049 -11.04954,17.42055 -9.32839,35.06371 0,0 0,10e-6 10e-6,10e-6 1.78837,9.05242 4.78427,16.94104 9.96061,24.28571 5.06608,7.7233 12.72727,14.30354 24.13683,20.41779 7.13097,3.24181 13.97361,5.61729 20.79408,6.99868 -6.72665,-2.89725 -13.05564,-6.75944 -19.23574,-11.2791 -9.84713,-8.20756 -14.91013,-16.32982 -16.9738,-24.52387 0,0 0,-10e-6 0,-10e-6 -2.15778,-7.85033 -1.68318,-15.2397 -0.10987,-22.35953 0,0 0,0 0,0 4.73393,-13.84447 13.9513,-15.44657 22.05319,-13.43989 0,0 0,0 0,0 8.18965,2.80228 9.91479,13.27041 6.82361,23.67714 -3.37344,10.71327 -15.02923,20.76779 -30.30182,26.61597 -2.27778,0.90831 -4.65828,1.67839 -7.12996,2.31681 2.18111,0.62749 4.36418,1.14724 6.54804,1.54991 14.65505,3.09272 30.58253,2.58312 43.79683,-2.66806 0,0 10e-6,-10e-6 10e-6,-10e-6 13.05007,-5.07467 25.38674,-14.67348 31.9357,-26.45621 6.5821,-11.46076 9.34341,-26.81921 5.7665,-39.24702 -1.55443,-6.16372 -4.75713,-12.3485 -9.06678,-17.60471 0,-1e-5 0,-1e-5 -10e-6,-1e-5 -4.32098,-5.14832 -9.67756,-9.53109 -15.40259,-12.07098 -10.73225,-5.14539 -26.17199,-4.94633 -37.55875,0.92992 -11.54615,5.61152 -21.56804,18.45928 -24.30022,31.93907 -0.73167,-13.96019 6.33636,-30.56298 18.88916,-40.92692 12.45045,-10.53395 31.95388,-15.68075 50.14767,-11.65811 9.58764,2.05597 19.0708,6.76312 27.32099,13.42398 0,0 0,10e-6 10e-6,10e-6 8.26718,6.69909 15.3213,15.39413 20.21143,25.44844 9.81578,20.09917 11.00736,45.47055 2.74205,68.54064 -8.27113,23.03787 -25.45924,43.47641 -47.90418,56.75185 -20.46873,12.0849 -44.65024,18.3628 -69.28928,18.22688 23.8906,7.46374 51.0152,8.93821 78.58709,1.80049 30.30314,-7.95534 59.29456,-26.72729 80.21992,-56.61723 0,0 10e-6,0 10e-6,-10e-6 20.87539,-30.30366 30.4186,-69.56152 22.1323,-111.83047 -4.59319,-21.26259 -13.69249,-41.53436 -27.24318,-59.49389 -13.46419,-18.12022 -31.64869,-33.65952 -54.43441,-45.08932 -43.80683,-20.95983 -94.58227,-22.75544 -143.09319,-0.16545 -13.00372,6.36464 -25.1098,14.09461 -36.1218,23.11229 10.24638,-9.77809 21.76977,-18.44983 34.45195,-25.88594 47.34226,-26.51374 100.25453,-30.11049 149.95664,-11.32659 25.84129,10.3634 47.62486,25.55653 64.70635,44.48328 10e-6,10e-6 2e-5,2e-5 3e-5,3e-5 17.19208,18.70852 30.02711,40.78012 37.98401,65.24969 14.63796,48.5881 9.72447,97.02689 -12.05728,138.5249 -21.86804,40.75272 -54.99316,70.49894 -94.23109,87.00846 -10e-6,0 -2e-5,10e-6 -3e-5,10e-6 -38.90326,16.14356 -79.31789,19.96232 -117.2722,12.69129 -30.72896,-6.48852 -57.77817,-17.61148 -80.97764,-31.70435 18.10343,23.03993 42.76431,44.54347 76.39399,62.16168 0,0 1e-5,10e-6 1e-5,10e-6 41.68406,20.59135 92.89628,29.46117 150.61804,18.80478 10e-6,0 2e-5,0 3e-5,-10e-6 58.31975,-11.31102 115.19699,-43.81378 160.68493,-102.82921 16.31598,-21.83773 29.61974,-46.01458 39.25442,-72.33146 -6.776,26.82781 -17.35624,52.2943 -31.42626,76.12424 -39.25844,64.47599 -93.10209,107.26956 -154.67798,128.83714 -60.8504,20.77587 -119.70733,22.17697 -172.93818,7.77571 -2e-5,-10e-6 -3e-5,-10e-6 -4e-5,-10e-6 -66.70726,-20.07977 -114.69928,-52.14608 -146.80732,-88.98103 -10e-6,-10e-6 -10e-6,-2e-5 -2e-5,-2e-5 -32.02103,-35.51056 -52.20467,-68.06907 -66.48758,-96.06704 -1.51078,-2.76234 -2.9649,-5.47892 -4.36858,-8.14838 -6.13226,9.31075 -12.22176,18.6515 -18.2238,28.05482 -22.69605,35.39518 -44.33352,71.89017 -62.50724,111.0627 -6.109655,-16.44654 -10.018763,-31.46815 -12.280925,-45.16586 -7.320918,-34.94017 -3.495301,-60.57722 1.28815,-79.29405 10e-7,0 2e-6,0 2e-6,-10e-6 4.67494,-17.01452 14.940533,-36.99435 20.665153,-52.42674 0.15687,-0.38921 0.30603,-0.77934 0.44758,-1.17028 -3.25529,31.02793 11.02333,66.76905 44.64789,84.97826 17.04238,9.34353 37.14367,16.04453 58.80121,17.87365 -29.63239,-42.48408 -67.93779,-77.8153 -111.87641,-103.99189 1.02901,1.38586 2.15892,2.64712 3.38546,3.7573 8.20045,7.99156 20.5878,13.88952 31.64266,12.18286 0,-1e-5 0,-1e-5 0,-1e-5 10.8602,-1.31386 23.12685,-5.72756 30.49926,-14.54633 0,0 0,0 0,0 7.07401,-7.98757 8.16116,-19.52915 -1.20243,-36.73181 -2.01335,-3.40721 -4.34677,-6.66784 -7.05107,-9.76735 1.58301,5.87926 2.49534,11.79718 2.82015,17.68488 0,10e-6 0,10e-6 0,10e-6 0.65146,30.07736 -16.0534,50.20202 -40.03529,60.65555 -16.76525,7.15745 -36.447143,9.56969 -56.343837,6.66418 5.000987,7.67884 11.22503,14.63593 17.897595,20.25938 9.764658,7.4293 19.068152,12.1145 25.685582,11.22065 6.08714,-1.12009 10.46058,-3.16107 7.83953,-7.11588 0,0 0,0 -1e-5,0 -3.5294,-3.54814 -7.45595,-4.96723 -18.18847,-0.0164 -5.203195,3.42447 -9.499405,7.28014 -13.044201,12.76742 -10e-7,0 -3e-6,0 -5e-6,10e-6 -3.905141,5.62129 -6.181198,13.03157 -6.948387,23.69823 -0.05228,6.37959 0.423104,12.26733 1.681116,17.88138 0.358693,-6.30472 1.687591,-12.43867 3.552783,-18.51945 3.722501,-10.16908 8.932438,-15.76598 14.932454,-18.63588 5.6831,-2.74173 11.38611,-2.89576 16.60779,-2.0044 1e-5,0 1e-5,0 1e-5,0 10.71359,3.35882 10.84074,14.49629 5.70267,24.59813 -5.76371,10.38282 -21.14252,16.97539 -39.174271,17.94628 -10.380073,0.48462 -21.75405,-1.56687 -33.334083,-5.76184 7.52308,8.36004 15.93286,15.60994 25.117906,21.1372 16.002665,9.6637 34.852858,15.57718 52.563958,14.57351 0,0 1e-5,0 1e-5,0 17.42553,-0.87757 35.71759,-7.63279 47.63019,-19.54503 6.00861,-5.71607 10.99738,-13.03303 14.30521,-21.01364 10e-6,0 10e-6,-10e-6 10e-6,-10e-6 3.20752,-7.91777 4.94886,-16.49717 4.4745,-24.56157 -0.55095,-13.76633 -7.53117,-28.74204 -18.38984,-38.49526 -10.74533,-9.89679 -26.99215,-15.8282 -42.40035,-15.02325 15.00438,-4.36647 33.77037,-2.29432 49.06339,6.5834 15.3649,8.78667 28.18831,25.17536 33.07477,44.33253 2.92726,11.26447 3.06797,23.74854 0.57445,35.99965 0,10e-6 0,10e-6 0,2e-5 -2.51855,12.29846 -7.69692,24.40026 -15.35377,35.11839 -15.2892,21.43395 -40.08793,37.1902 -67.94466,43.20736 0,0 -1e-5,0 -2e-5,10e-6 -27.81108,5.99545 -58.105908,2.74625 -85.669693,-8.64382 -10.030091,-4.14432 -19.684145,-9.25687 -28.858133,-15.1987 7.059807,8.57064 15.068304,16.67875 24.084151,24.13249 24.829367,20.48003 57.176225,34.81362 94.513005,37.3829 1e-5,0 2e-5,0 3e-5,0 37.64991,2.42551 77.89673,-8.76812 112.55065,-36.82908 17.27066,-14.48725 31.71789,-32.67446 42.1106,-53.9211 10e-6,-10e-6 10e-6,-2e-5 2e-5,-3e-5 10.54944,-21.25473 16.60354,-45.72117 16.70329,-72.55054 -0.47814,-45.40133 -17.97974,-89.77876 -53.33348,-124.80162 -10.32008,-9.97639 -21.62492,-18.76385 -33.78738,-26.20584 z"
       style="fill:#000000;fill-rule:evenodd;stroke:none" />
    <path
       inkscape:connector-curvature="0"
       inkscape:original-d="m 1639.8132,-951.06679 c 0,0 4.0406,-116.16751 98.9949,-59.59901 94.9544,56.56855 44.4467,67.68023 -74.7513,172.73609 -119.198,105.05587 -128.2894,-193.94929 -282.8427,-205.06099 -154.5534,-11.1117 -178.797,127.27925 -146.4721,263.64984 32.3249,136.37059 244.4569,57.57869 230.3148,-39.39595 -14.1422,-96.97464 -95.9645,-75.76144 -95.9645,-75.76144"
       inkscape:path-effect="#path-effect3138;#path-effect3140"
       id="path3136"
       d="m 1555.2557,-975.09429 c 0.8274,1.66665 1.6468,3.32624 2.4596,4.97851 0,0 0,10e-6 0,10e-6 13.7176,27.11769 25.6541,52.68074 41.9709,75.25966 16.2999,22.35372 36.7772,43.22965 64.6128,55.31716 11.9214,5.18603 25.1666,8.67297 39.1424,9.83316 10.27,-6.84645 18.9929,-14.91945 25.7141,-23.72268 14.8507,-19.45709 19.9705,-42.42296 15.0547,-59.05775 0,0 0,-10e-6 0,-10e-6 -4.878,-16.29104 -17.643,-27.77166 -29.5132,-25.10028 -3.692,0.98856 -7.2629,2.82684 -10.1122,5.48176 44.7096,-32.77999 93.6763,-59.73551 145.7267,-80.00895 -3.4825,-14.5565 -9.1031,-28.9751 -17.0386,-42.784 -12.5512,-22.2005 -31.2892,-42.5413 -56.9623,-58.7795 -49.4396,-29.8603 -111.4046,-39.1388 -175.9137,-14.8763 0,0 0,0 0,0 -63.7219,25.5701 -115.4538,76.3636 -138.8428,152.76383 19.3888,-76.95503 67.7095,-132.08503 132.5939,-163.14333 65.7374,-29.6414 132.3953,-26.0769 190.4519,2.4868 30.1338,15.6794 53.6373,36.3948 70.7262,60.3421 17.2165,23.6723 28.4314,50.1258 33.8873,77.81188 0,3e-5 0,6e-5 0,9e-5 9.443,54.96735 -3.9461,103.74323 -31.2393,140.92514 -27.3755,36.48294 -63.3581,57.72914 -100.1672,65.65316 -10e-5,10e-6 -10e-5,2e-5 -10e-5,3e-5 -36.5765,7.66762 -70.8019,2.78174 -99.2279,-9.81663 -36.0724,-16.47572 -60.4884,-42.05787 -77.9651,-69.02862 -17.4749,-26.92241 -28.5628,-55.17921 -40.4103,-84.12683 0,-10e-6 0,-2e-5 0,-4e-5 -11.7175,-29.08238 -24.2256,-59.30118 -44.6801,-90.36578 -20.4227,-31.5358 -50.5345,-61.5856 -95.6447,-83.3422 -50.1042,-22.06 -108.9837,-27.5456 -167.4726,-10.6236 -58.0092,17.0731 -111.3526,52.1509 -150.8522,104.2419 -39.0454,51.88643 -63.7543,114.63523 -68.3808,183.0656 -4.4177,68.01292 8.0885,136.77841 39.139,200.12321 24.5451,52.97945 64.7949,103.24885 123.0687,146.49602 59.3916,43.72285 135.0118,69.99328 225.2243,71.69665 10e-5,0 2e-4,0 3e-4,0 92.1742,0.81876 184.2111,-32.6506 267.3443,-106.07997 1e-4,-8e-5 2e-4,-1.6e-4 3e-4,-2.4e-4 41.242,-38.86847 73.9864,-85.09921 96.6542,-138.23289 23.4295,-53.30064 34.8028,-114.00915 32.2276,-181.47695 -6.9991,-113.90564 -53.5059,-216.42563 -142.4129,-298.06963 -90.287,-79.8959 -201.2655,-121.5902 -328.3072,-116.3073 127.6429,0.02 234.8707,47.46 318.3868,128.8732 82.1977,83.0831 120.0047,183.4993 120.5489,289.37864 -1.0769,62.7033 -15.2524,117.59823 -39.745,164.44707 -23.8429,46.70503 -56.3052,85.81182 -95.0932,117.23288 -78.1059,59.25268 -160.4551,79.32063 -237.0985,70.84971 -10e-5,-10e-6 -10e-5,-10e-6 -2e-4,-2e-5 -75.175,-9.13548 -133.7557,-39.37269 -175.9341,-80.52523 -41.4567,-40.84658 -65.5062,-85.8608 -76.7477,-129.98927 -14.2962,-53.05269 -11.9778,-105.83952 2.6722,-150.55084 14.7139,-44.83924 42.7586,-79.93974 74.6016,-100.2317 31.8458,-20.29289 67.3825,-25.49663 93.8485,-17.37477 26.2437,8.05314 44.9851,27.62077 45.7885,47.70366 0,2e-5 0,3e-5 0,4e-5 1.8872,16.52301 -2.4287,38.1305 -3.4556,57.40336 -1.1146,20.65203 -2.6253,47.04175 5.2543,81.19747 0,2e-5 0,5e-5 0,8e-5 6.7697,35.30572 23.297,78.44558 59.4754,130.9668 1e-4,4e-5 1e-4,8e-5 1e-4,1.2e-4 36.3364,54.89421 99.2667,105.47885 197.789,142.90106 79.0482,26.83483 169.281,29.92027 267.6677,1.53497 50.4049,-15.10587 98.1809,-39.1249 142.0536,-72.73069 -47.7846,29.55637 -98.1148,48.1808 -149.1641,57.41466 -99.7284,16.83101 -184.8118,0.31312 -253.069,-35.97606 0,0 0,0 0,-10e-6 -24.5247,-14.12688 -45.583,-29.09559 -63.5983,-44.63926 -51.7532,-17.48156 -93.7042,-41.31242 -125.3643,-69.28871 0,-10e-6 0,-10e-6 0,-2e-5 -44.3312,-37.15752 -74.6282,-69.74513 -94.1423,-94.01261 -19.6291,-21.74598 -30.2114,-35.82026 -34.6466,-39.19312 20.9031,-15.59372 53.1563,-15.65747 91.2232,-10.65721 28.037,4.38759 59.8435,11.37645 92.8397,16.62211 13.1172,-54.50333 36.4709,-102.59424 59.2365,-150.61847 1.9421,-4.08432 3.8832,-8.17327 5.8169,-12.27103 z"
       style="fill:#000000;fill-rule:evenodd;stroke:none" />
    <path
       inkscape:connector-curvature="0"
       inkscape:original-d="m -184.45935,-139.40033 c 0,0 4.0406,-116.16755 98.994903,-59.599 94.9544005,56.56854 44.4467,67.68022 -74.751303,172.736076 -119.198,105.05587 -128.2894,-193.949286 -282.8427,-205.060956 -154.55329,-11.11168 -178.79699,127.27922 -146.47209,263.649806 32.3249,136.370594 244.45689,57.57869 230.31479,-39.39595 -14.1422,-96.974636 -95.9645,-75.76144 -95.9645,-75.76144"
       inkscape:path-effect="#path-effect3164;#path-effect3166"
       id="path3162"
       d="m -461.93537,-142.40789 c 38.82344,-3.56874 76.39981,7.96184 106.29501,32.15046 29.67141,24.472103 47.99514,58.692391 52.12149,96.396958 2.16979,22.2658504 -0.64985,43.866821 -7.77214,63.597291 -7.00181,19.736814 -17.96028,37.727916 -32.2647,53.009811 -28.70457,29.7848 -65.91893,46.78287 -104.48057,49.92255 -4e-5,0 -8e-5,10e-6 -1.2e-4,10e-6 -38.20276,2.97652 -74.90167,-5.8857 -105.98105,-23.63657 -30.86164,-17.6583 -55.79723,-42.004276 -74.03466,-69.730709 -22.39178,-33.438137 -36.07483,-72.3542 -39.05959,-112.793471 -10e-6,-3.3e-5 -10e-6,-6.7e-5 -10e-6,-1.01e-4 -2.93562,-40.535977 5.65519,-81.410109 25.1606,-117.291109 19.62648,-35.93438 50.10089,-65.13278 87.1039,-82.86834 37.15488,-17.68624 79.46205,-22.36102 119.47722,-12.85312 36.37433,9.34856 67.13081,28.22204 91.90813,50.64343 24.79714,22.14175 44.81087,46.32243 63.6302,69.10773 2e-5,2e-5 4e-5,4e-5 6e-5,6e-5 18.97831,22.62046 36.92941,44.15065 57.27559,60.976776 20.32703,16.572338 42.7541,29.93443 66.19376,33.907338 18.15131,3.299593 37.52492,1.854484 54.10574,-5.271305 2e-5,-8e-6 4e-5,-1.6e-5 6e-5,-2.4e-5 16.485376,-7.023998 31.263332,-19.661691 39.40816,-35.339208 9e-6,-1.8e-5 1.9e-5,-3.6e-5 2.8e-5,-5.4e-5 8.162703,-15.492393 10.688331,-34.986953 5.411512,-51.577083 -5e-6,-2e-5 -1.1e-5,-3e-5 -1.7e-5,-5e-5 -2.508181,-8.2716 -7.017817,-16.19076 -12.944549,-22.84073 -1.4e-5,-2e-5 -2.7e-5,-3e-5 -4.1e-5,-5e-5 -5.923789,-6.57969 -13.241586,-11.99095 -21.237754,-15.19639 -15.129639,-6.27501 -34.456749,-5.22146 -49.262659,3.06096 -14.89351,8.13692 -26.51991,24.28083 -29.47633,41.58821 2.66422,-17.3479 14.04144,-33.80858 29.01987,-42.3464 14.89564,-8.67533 34.56554,-10.14626 50.324623,-3.96596 8.322008,3.16461 15.98791,8.60324 22.243156,15.31053 6.260608,6.77171 11.095158,14.90265 13.884733,23.50249 2e-6,0 5e-6,1e-5 7e-6,1e-5 5.803115,17.23727 3.610933,37.57652 -4.693776,54.048247 -3e-6,5e-6 -6e-6,1.1e-5 -9e-6,1.7e-5 -8.290104,16.626969 -23.477313,30.17907 -40.755214,37.894861 -17.3557,7.798463 -37.6504,9.729564 -56.84535,6.566092 -24.72996,-3.851637 -48.34169,-17.250212 -69.50518,-34.081096 -21.17871,-17.025388 -39.77601,-38.614021 -59.05857,-61.027971 -19.16403,-22.53681 -39.20113,-46.18172 -63.55127,-67.36904 -1e-5,-1e-5 -3e-5,-2e-5 -4e-5,-4e-5 -24.33518,-21.39077 -53.95672,-39.22617 -88.26633,-47.5639 -37.65178,-8.59887 -77.47454,-3.72493 -112.09593,13.15787 -34.51552,16.91778 -62.84764,44.69977 -80.88007,78.46299 -8.72865,16.40137 -15.01568,33.92245 -18.81539,51.94939 4.95339,-17.80038 12.32965,-34.77834 21.9453,-50.32409 19.8459,-31.99917 49.12539,-56.82173 82.58814,-70.45657 33.52564,-13.61345 70.58653,-15.2817 103.40849,-5.17567 30.05992,9.4124 55.23198,27.74374 76.24151,48.85797 21.01103,21.11824 38.22215,45.12376 55.90585,69.18465 17.64117,24.104918 35.96624,48.519878 59.11116,70.200234 23.15239,21.822506 51.91929,40.097911 86.32544,48.3523982 2e-5,4.5e-6 4e-5,9e-6 5e-5,1.35e-5 27.04333,6.2680599 56.50915,4.9954295 84.49096,-5.502155 28.096702,-10.6247307 53.026357,-30.9006487 69.316253,-59.1139557 16.2534408,-28.511679 21.427224,-63.338495 12.0601452,-97.862025 -7.2e-6,-3e-5 -1.43e-5,-5e-5 -2.14e-5,-8e-5 -4.9745391,-17.34773 -13.6131208,-33.45418 -25.4898148,-47.28156 -11.814144,-13.91867 -27.048746,-25.39713 -45.16661,-33.25107 -34.745312,-14.4787 -74.049752,-13.25544 -109.040752,5.16178 -27.89078,15.20769 -49.3197,39.36467 -60.78542,69.37228 11.21859,-30.08899 32.45788,-54.50554 60.38259,-70.04139 35.03745,-18.81835 74.66372,-20.49448 110.043087,-6.13938 18.446179,7.79785 34.03885,19.29071 46.198102,33.3294 1.4e-5,2e-5 2.8e-5,3e-5 4.2e-5,5e-5 12.2242137,13.94142 21.20520755,30.25714 26.4791259,47.93835 1.21e-5,4e-5 2.42e-5,8e-5 3.63e-5,1.2e-4 9.9283458,35.18106 5.1234152,70.886518 -11.2637968,100.428941 -16.4270974,29.21282 -41.7755854,50.462567 -70.7037014,61.8295501 -1.7e-5,6.5e-6 -3.3e-5,1.29e-5 -5e-5,1.93e-5 C -106.1013,7.8208963 -136.542,9.6217756 -164.69631,3.5090492 c -35.77982,-8.1119575 -65.81734,-26.4145702 -89.87107,-48.5046142 -24.04201,-21.884472 -43.06794,-46.355567 -61.04288,-70.232395 -2e-5,-3e-5 -3e-5,-5e-5 -5e-5,-7e-5 -18.06094,-23.78779 -35.30454,-47.21186 -55.83964,-67.29607 -20.53886,-19.99822 -44.4924,-37.2035 -72.32582,-45.51789 -30.27328,-9.11722 -64.64913,-7.22507 -95.43233,5.52606 -30.77006,12.75702 -57.72585,36.05228 -75.83993,65.70333 -18.08222,29.6379 -27.33219,65.048713 -26.38985,100.923063 0.96285,35.834892 11.71655,71.593594 30.7977,102.998031 15.60861,25.977469 37.343,49.285019 64.88155,66.468956 27.67807,17.24297 61.00993,26.88903 96.24125,25.3811 4e-5,0 7e-5,0 1.1e-4,0 35.49275,-1.62759 70.79283,-15.97754 98.50399,-42.961016 2e-5,-2.7e-5 5e-5,-5.5e-5 8e-5,-8.2e-5 13.81947,-13.810257 24.72212,-30.393615 31.95613,-48.860067 7.33235,-18.455587 10.7057,-38.9077892 9.25756,-60.232172 -2.85083,-36.118564 -19.45548,-69.923147 -47.80113,-94.679613 -28.55726,-24.48843 -65.39248,-37.15442 -104.33473,-34.63349 z"
       style="fill:#000000;fill-rule:evenodd;stroke:none" />
  </g>
</svg>
